<?xml version="1.0" encoding="iso-8859-1"?>
<!-- Generator: Adobe Illustrator 17.1.0, SVG Export Plug-In . SVG Version: 6.00 Build 0)  -->
<!DOCTYPE svg PUBLIC "-//W3C//DTD SVG 1.1//EN" "http://www.w3.org/Graphics/SVG/1.1/DTD/svg11.dtd">
<svg version="1.1" id="Capa_1" xmlns="http://www.w3.org/2000/svg" xmlns:xlink="http://www.w3.org/1999/xlink" x="0px" y="0px"
	 viewBox="0 0 487.865 487.865" style="enable-background:new 0 0 487.865 487.865;" xml:space="preserve">
<path d="M425.974,0H96.025C74.447,0,56.892,17.555,56.892,39.133v405.557c0,21.748,16.166,39.782,37.11,42.741
	c0.62,0.275,1.302,0.435,2.023,0.435c0.361,0,0.712-0.042,1.052-0.115c0.99,0.068,1.985,0.115,2.991,0.115h325.905
	c2.762,0,5-2.238,5-5V73.267V5C430.974,2.238,428.735,0,425.974,0z M420.974,10v58.267H96.025c-2.191,0-4.324-0.251-6.378-0.712
	V10.712C91.702,10.251,93.834,10,96.025,10H420.974z M79.647,15.054v48.159c-7.694-5.25-12.756-14.084-12.756-24.08
	C66.892,29.137,71.954,20.303,79.647,15.054z M101.025,477.865v-29.126c0-2.762-2.238-5-5-5s-5,2.238-5,5v27.863
	c-13.911-3.948-24.134-16.755-24.134-31.913V65.226c3.607,4.023,8.034,7.291,13.014,9.552c0.644,2.018,2.511,3.489,4.742,3.489
	c1.082,0,2.078-0.352,2.896-0.937c1.143,0.254,2.304,0.455,3.482,0.606v330.779c0,2.762,2.238,5,5,5s5-2.238,5-5V78.267h319.948
	v399.599H101.025z M102.402,27.755c0-2.762,2.238-5,5-5h295.815c2.762,0,5,2.238,5,5s-2.238,5-5,5H107.402
	C104.641,32.755,102.402,30.517,102.402,27.755z M102.402,50.524c0-2.762,2.238-5,5-5h295.815c2.762,0,5,2.238,5,5s-2.238,5-5,5
	H107.402C104.641,55.524,102.402,53.286,102.402,50.524z M389.469,189.668c0,2.762-2.238,5-5,5H193.202v131.536
	c0,2.361-1.652,4.4-3.962,4.891c-0.348,0.074-0.696,0.109-1.04,0.11c-1.942,0-3.752-1.137-4.567-2.97l-32.813-73.827h-22.351
	c-2.762,0-5-2.238-5-5s2.238-5,5-5h25.6c1.976,0,3.767,1.164,4.569,2.969l24.564,55.268V189.668c0-2.762,2.238-5,5-5h196.267
	C387.23,184.668,389.469,186.906,389.469,189.668z M235.868,249.407v3.534h12.067c2.762,0,5,2.238,5,5s-2.238,5-5,5h-12.067v32.434
	c0,12.167-9.899,22.066-22.066,22.066c-2.762,0-5-2.238-5-5s2.238-5,5-5c6.653,0,12.066-5.413,12.066-12.066v-32.434h-5.933
	c-2.762,0-5-2.238-5-5s2.238-5,5-5h5.933v-3.534c0-21.578,17.556-39.133,39.134-39.133c2.762,0,5,2.238,5,5s-2.238,5-5,5
	C248.938,220.274,235.868,233.344,235.868,249.407z M278.535,266.475c0,13.687,14.177,21.069,14.319,21.142
	c2.454,1.251,3.443,4.255,2.202,6.713c-0.88,1.743-2.638,2.751-4.464,2.751c-0.75,0-1.512-0.17-2.229-0.528
	c-0.81-0.405-19.829-10.149-19.829-30.077c0-19.927,19.02-29.672,19.829-30.077c2.468-1.235,5.473-0.235,6.709,2.234
	c1.233,2.465,0.239,5.462-2.221,6.702C292.608,245.46,278.535,252.839,278.535,266.475z M380.936,266.368
	c0,19.928-19.021,29.672-19.83,30.077c-0.719,0.359-1.481,0.529-2.233,0.529c-1.834,0-3.6-1.013-4.476-2.764
	c-1.233-2.465-0.238-5.462,2.221-6.702c0.25-0.129,14.318-7.507,14.318-21.141c0-13.686-14.178-21.069-14.32-21.142
	c-2.454-1.251-3.443-4.255-2.202-6.713s4.231-3.452,6.692-2.223C361.915,236.696,380.936,246.441,380.936,266.368z M345.337,252.943
	l-13.531,13.532l13.531,13.532c1.953,1.952,1.953,5.118,0,7.07c-0.976,0.977-2.256,1.465-3.535,1.465s-2.56-0.488-3.535-1.465
	l-13.531-13.532l-13.531,13.532c-0.976,0.977-2.256,1.465-3.535,1.465s-2.56-0.488-3.535-1.465c-1.953-1.952-1.953-5.118,0-7.07
	l13.531-13.532l-13.531-13.532c-1.953-1.952-1.953-5.118,0-7.07c1.951-1.953,5.119-1.953,7.07,0l13.531,13.532l13.531-13.532
	c1.951-1.953,5.119-1.953,7.07,0C347.29,247.825,347.29,250.991,345.337,252.943z"/>
<g>
</g>
<g>
</g>
<g>
</g>
<g>
</g>
<g>
</g>
<g>
</g>
<g>
</g>
<g>
</g>
<g>
</g>
<g>
</g>
<g>
</g>
<g>
</g>
<g>
</g>
<g>
</g>
<g>
</g>
</svg>
