<?xml version="1.0" encoding="UTF-8" standalone="no"?>
<svg
   xmlns:dc="http://purl.org/dc/elements/1.1/"
   xmlns:cc="http://creativecommons.org/ns#"
   xmlns:rdf="http://www.w3.org/1999/02/22-rdf-syntax-ns#"
   xmlns:svg="http://www.w3.org/2000/svg"
   xmlns="http://www.w3.org/2000/svg"
   xmlns:sodipodi="http://sodipodi.sourceforge.net/DTD/sodipodi-0.dtd"
   xmlns:inkscape="http://www.inkscape.org/namespaces/inkscape"
   viewBox="0 0 270 286.31403"
   height="286.31403"
   width="270"
   xml:space="preserve"
   version="1.1"
   id="svg2"
   inkscape:version="0.91 r13725"
   sodipodi:docname="Carleton Ravens logo.svg"><sodipodi:namedview
     pagecolor="#ffffff"
     bordercolor="#666666"
     borderopacity="1"
     objecttolerance="10"
     gridtolerance="10"
     guidetolerance="10"
     inkscape:pageopacity="0"
     inkscape:pageshadow="2"
     inkscape:window-width="1280"
     inkscape:window-height="751"
     id="namedview63"
     showgrid="false"
     fit-margin-top="10"
     fit-margin-left="10"
     fit-margin-right="10"
     fit-margin-bottom="10"
     inkscape:zoom="0.38448605"
     inkscape:cx="311.83994"
     inkscape:cy="248.91257"
     inkscape:window-x="-4"
     inkscape:window-y="-4"
     inkscape:window-maximized="1"
     inkscape:current-layer="svg2" /><metadata
     id="metadata8"><rdf:RDF><cc:Work
         rdf:about=""><dc:format>image/svg+xml</dc:format><dc:type
           rdf:resource="http://purl.org/dc/dcmitype/StillImage" /><dc:title></dc:title></cc:Work></rdf:RDF></metadata><defs
     id="defs6" /><g
     id="g3504"
     transform="matrix(0.50257036,0,0,0.50257036,4.9742964,4.9742964)"><path
       inkscape:connector-curvature="0"
       d="m 10,531.51332 0,-0.0467 c 0,-4.63733 3.476533,-8.44 8.421866,-8.44 3.002534,0 4.815066,1.04667 6.377596,2.54133 l -1.8412,2.12 c -1.299462,-1.2133 -2.697862,-2.0253 -4.559862,-2.0253 -3.1276,0 -5.395867,2.56267 -5.395867,5.75467 l 0,0.0493 c 0,3.19333 2.268267,5.80267 5.395867,5.80267 2,0 3.283866,-0.81334 4.682262,-2.12267 l 1.836,1.86667 c -1.69013,1.772 -3.562529,2.89066 -6.619862,2.89066 -4.75,0 -8.2968,-3.70266 -8.2968,-8.39066"
       style="fill:#0a0a0d;fill-opacity:1;fill-rule:nonzero;stroke:none"
       id="path14" /><path
       inkscape:connector-curvature="0"
       d="m 49.455732,533.14398 -2.81,-6.524 -2.79427,6.524 5.60427,0 z m -4.08853,-9.956 2.6536,0 7.17453,16.43734 -3.02347,0 -1.66146,-3.94267 -7.71614,0 -1.67706,3.94267 -2.93494,0 7.18494,-16.43734"
       style="fill:#0a0a0d;fill-opacity:1;fill-rule:nonzero;stroke:none"
       id="path16" /><path
       inkscape:connector-curvature="0"
       d="m 76.708132,531.39465 c 2.05467,0 3.36,-1.068 3.36,-2.724 l 0,-0.048 c 0,-1.74667 -1.256,-2.70533 -3.38267,-2.70533 l -4.16266,0 0,5.47733 4.18533,0 z m -7.05733,-8.08933 7.26,0 c 2.05733,0 3.66933,0.60933 4.72666,1.63333 0.86,0.88267 1.34667,2.10133 1.34667,3.52267 l 0,0.0427 c 0,2.68134 -1.61733,4.29067 -3.888,4.94534 l 4.39333,6.176 -3.37733,0 -4.01067,-5.68934 -3.57866,0 0,5.68934 -2.872,0 0,-16.32"
       style="fill:#0a0a0d;fill-opacity:1;fill-rule:nonzero;stroke:none"
       id="path18" /><path
       inkscape:connector-curvature="0"
       d="m 98.161462,523.30532 2.861338,0 0,13.708 8.58133,0 0,2.612 -11.442668,0 0,-16.32"
       style="fill:#0a0a0d;fill-opacity:1;fill-rule:nonzero;stroke:none"
       id="path20" /><path
       inkscape:connector-curvature="0"
       d="m 124.23746,523.30532 12.09867,0 0,2.56533 -9.23467,0 0,4.248 8.19067,0 0,2.55867 -8.19067,0 0,4.384 9.35467,0 0,2.564 -12.21867,0 0,-16.32"
       style="fill:#0a0a0d;fill-opacity:1;fill-rule:nonzero;stroke:none"
       id="path22" /><path
       inkscape:connector-curvature="0"
       d="m 155.52279,525.96398 -5.17866,0 0,-2.65866 13.24666,0 0,2.65866 -5.18,0 0,13.66134 -2.888,0 0,-13.66134"
       style="fill:#0a0a0d;fill-opacity:1;fill-rule:nonzero;stroke:none"
       id="path24" /><path
       inkscape:connector-curvature="0"
       d="m 190.72413,531.51332 0,-0.0467 c 0,-3.172 -2.31067,-5.804 -5.552,-5.804 -3.23467,0 -5.49467,2.58533 -5.49467,5.75467 l 0,0.0493 c 0,3.16667 2.296,5.80267 5.544,5.80267 3.232,0 5.50267,-2.58667 5.50267,-5.756 z m -14.06,0 0,-0.0467 c 0,-4.59067 3.54133,-8.44 8.55733,-8.44 5.01067,0 8.51067,3.80267 8.51067,8.39067 l 0,0.0493 c 0,4.58933 -3.54267,8.43733 -8.56,8.43733 -5.008,0 -8.508,-3.80133 -8.508,-8.39066"
       style="fill:#0a0a0d;fill-opacity:1;fill-rule:nonzero;stroke:none"
       id="path26" /><path
       inkscape:connector-curvature="0"
       d="m 208.84946,523.30532 2.656,0 8.74933,11.28666 0,-11.28666 2.816,0 0,16.32 -2.39333,0 -9,-11.60934 0,11.60934 -2.828,0 0,-16.32"
       style="fill:#0a0a0d;fill-opacity:1;fill-rule:nonzero;stroke:none"
       id="path28" /><path
       inkscape:connector-curvature="0"
       d="m 257.31212,532.70398 0,-9.39866 2.87334,0 0,9.27866 c 0,3.032 1.55866,4.664 4.11333,4.664 2.548,0 4.108,-1.53866 4.108,-4.544 l 0,-9.39866 2.872,0 0,9.256 c 0,4.872 -2.756,7.32 -7.016,7.32 -4.24933,0 -6.95067,-2.448 -6.95067,-7.17734"
       style="fill:#0a0a0d;fill-opacity:1;fill-rule:nonzero;stroke:none"
       id="path30" /><path
       inkscape:connector-curvature="0"
       d="m 286.86946,523.30532 2.656,0 8.74,11.28666 0,-11.28666 2.82,0 0,16.32 -2.39334,0 -9.004,-11.60934 0,11.60934 -2.81866,0 0,-16.32"
       style="fill:#0a0a0d;fill-opacity:1;fill-rule:nonzero;stroke:none"
       id="path32" /><path
       inkscape:connector-curvature="0"
       d="m 317.10946,539.62532 2.85625,0 0,-16.32027 -2.85625,0 0,16.32027 z"
       style="fill:#0a0a0d;fill-opacity:1;fill-rule:nonzero;stroke:none"
       id="path34" /><path
       inkscape:connector-curvature="0"
       d="m 334.58279,523.30532 3.16667,0 4.92266,12.54133 4.896,-12.54133 3.09867,0 -6.784,16.43733 -2.516,0 -6.784,-16.43733"
       style="fill:#0a0a0d;fill-opacity:1;fill-rule:nonzero;stroke:none"
       id="path36" /><path
       inkscape:connector-curvature="0"
       d="m 365.11212,523.30532 12.10134,0 0,2.56533 -9.22934,0 0,4.248 8.18,0 0,2.55867 -8.18,0 0,4.384 9.34667,0 0,2.564 -12.21867,0 0,-16.32"
       style="fill:#0a0a0d;fill-opacity:1;fill-rule:nonzero;stroke:none"
       id="path38" /><path
       inkscape:connector-curvature="0"
       d="m 399.45879,531.39465 c 2.04666,0 3.35066,-1.068 3.35066,-2.724 l 0,-0.048 c 0,-1.74667 -1.25466,-2.70533 -3.38266,-2.70533 l -4.16667,0 0,5.47733 4.19867,0 z m -7.07067,-8.08933 7.27067,0 c 2.05733,0 3.66133,0.60933 4.71066,1.63333 0.868,0.88267 1.35734,2.10133 1.35734,3.52267 l 0,0.0427 c 0,2.68134 -1.612,4.29067 -3.904,4.94534 l 4.41466,6.176 -3.37866,0 -4.01467,-5.68934 -3.584,0 0,5.68934 -2.872,0 0,-16.32"
       style="fill:#0a0a0d;fill-opacity:1;fill-rule:nonzero;stroke:none"
       id="path40" /><path
       inkscape:connector-curvature="0"
       d="m 419.80412,537.24798 1.724,-2.04933 c 1.56533,1.34933 3.11467,2.12 5.14933,2.12 1.77867,0 2.896,-0.81733 2.896,-2.052 l 0,-0.0467 c 0,-1.16666 -0.65733,-1.79466 -3.68533,-2.49733 -3.47733,-0.836 -5.42667,-1.86533 -5.42667,-4.87067 l 0,-0.0467 c 0,-2.79867 2.32267,-4.732 5.56134,-4.732 2.384,0 4.26666,0.724 5.928,2.052 l -1.544,2.16666 c -1.46134,-1.096 -2.94134,-1.68133 -4.42267,-1.68133 -1.68533,0 -2.66133,0.864 -2.66133,1.94 l 0,0.044 c 0,1.25733 0.75066,1.82 3.87733,2.56533 3.43733,0.84134 5.24,2.07734 5.24,4.77867 l 0,0.0493 c 0,3.052 -2.40667,4.872 -5.828,4.872 -2.49467,0 -4.86267,-0.86133 -6.808,-2.612"
       style="fill:#0a0a0d;fill-opacity:1;fill-rule:nonzero;stroke:none"
       id="path42" /><path
       inkscape:connector-curvature="0"
       d="m 447.63079,539.62532 2.8776,0 0,-16.32027 -2.8776,0 0,16.32027 z"
       style="fill:#0a0a0d;fill-opacity:1;fill-rule:nonzero;stroke:none"
       id="path44" /><path
       inkscape:connector-curvature="0"
       d="m 470.52145,525.96398 -5.17466,0 0,-2.65866 13.244,0 0,2.65866 -5.172,0 0,13.66134 -2.89734,0 0,-13.66134"
       style="fill:#0a0a0d;fill-opacity:1;fill-rule:nonzero;stroke:none"
       id="path46" /><path
       inkscape:connector-curvature="0"
       d="m 498.07079,533.18798 -6.47734,-9.88266 3.38267,0 4.56,7.22933 4.61733,-7.22933 3.28934,0 -6.47734,9.81466 0,6.50534 -2.89466,0 0,-6.43734"
       style="fill:#0a0a0d;fill-opacity:1;fill-rule:nonzero;stroke:none"
       id="path48" /><path
       inkscape:connector-curvature="0"
       d="M 258.72946,384.41999 C 365.63079,287.26932 416.06012,161.60933 417.69212,33.57066 369.57612,41.416 314.48679,34.02666 258.72946,10 202.95346,34.02666 147.86679,41.416 99.749462,33.57066 101.38013,161.60933 151.81746,287.26932 258.72946,384.41999"
       style="fill:#0a0a0d;fill-opacity:1;fill-rule:nonzero;stroke:none"
       id="path50" /><path
       inkscape:connector-curvature="0"
       d="m 258.72946,246.32132 0,-120.28133 c -13.828,27.45467 -40.82,50.11067 -75.60667,64.96534 40.40267,17.10666 72.81734,75.35733 75.60667,132.37599 2.77866,-57.01866 35.20266,-115.26933 75.59866,-132.37599 -34.18,10.708 -61.65866,30.82666 -75.59866,55.31599"
       style="fill:#ffffff;fill-opacity:1;fill-rule:nonzero;stroke:none"
       id="path52" /><path
       inkscape:connector-curvature="0"
       d="m 202.04679,131.35999 c -3.38266,3.19734 -7.94266,5.168 -12.96666,5.168 -10.46,0 -18.932,-8.47733 -18.932,-18.93733 0,-2.804 0.62533,-5.45867 1.72666,-7.85067 l 13.932,-2.59066 -20.89066,-8.65867 c -4.16134,5.25467 -6.66134,11.88133 -6.66134,19.1 0,17.028 13.808,30.832 30.83067,30.832 10.04,0 18.936,-4.824 24.56267,-12.25733 l -11.60134,-4.80534"
       style="fill:#ffffff;fill-opacity:1;fill-rule:nonzero;stroke:none"
       id="path54" /><path
       inkscape:connector-curvature="0"
       d="m 88.518802,440.96399 11.787998,0 c 4.152,0 9.104,1.17733 9.104,6.956 0,4.31066 -3.38534,6.87733 -9.02534,6.87733 l -11.866658,0 0,-13.83333 z m 35.574658,6.24533 c 0,-5.38 -1.82266,-10.09067 -5.31733,-13.67467 -4.164,-4.07066 -10.276,-6.22666 -17.67733,-6.22666 l -27.117338,0 0,60.248 14.53734,0 0,-31.49734 22.194658,31.49734 17.37733,0 -15.83866,-22.196 c 7.576,-3.252 11.84133,-9.67734 11.84133,-18.15067"
       style="fill:#0a0a0d;fill-opacity:1;fill-rule:nonzero;stroke:none"
       id="path56" /><path
       inkscape:connector-curvature="0"
       d="m 368.91879,458.78265 -38.752,-36.43333 0,65.212 14.372,0 0,-32.276 38.748,36.41066 0,-64.38533 -14.368,0 0,31.472"
       style="fill:#0a0a0d;fill-opacity:1;fill-rule:nonzero;stroke:none"
       id="path58" /><path
       inkscape:connector-curvature="0"
       d="m 240.74013,427.30799 -15.02934,33.232 -15.02266,-33.232 -16.09734,0 31.12,65.45866 31.13067,-65.45866 -16.10133,0"
       style="fill:#0a0a0d;fill-opacity:1;fill-rule:nonzero;stroke:none"
       id="path60" /><path
       inkscape:connector-curvature="0"
       d="m 283.67746,450.44399 0,-9.64134 31.38533,0 0,-13.49466 -45.90667,0 0,23.136 -14.75999,0 14.75999,12.208 0,24.904 46.30534,0 0,-13.49734 -31.784,0 0,-10.11466 27.82266,0 0,-13.5 -27.82266,0"
       style="fill:#0a0a0d;fill-opacity:1;fill-rule:nonzero;stroke:none"
       id="path62" /><path
       inkscape:connector-curvature="0"
       d="m 425.03345,450.66799 c -11.31733,-2.70134 -11.31733,-4.328 -11.31733,-6.548 0,-2.50134 2.672,-4.18667 6.64533,-4.18667 4.456,0 8.904,1.71333 13.62267,5.232 l 1.96133,1.46267 7.96134,-11.20267 -1.76667,-1.40933 c -6.288,-5.044 -13.36133,-7.5 -21.61867,-7.5 -12.36266,0 -21.33333,7.76933 -21.33333,18.63333 0,12.904 10.028,16.40933 20.312,18.89333 10.66667,2.46134 10.66667,4.336 10.66667,6.30667 0,3.38133 -3.83867,4.58133 -7.42267,4.58133 -5.828,0 -10.60133,-1.98133 -15.96267,-6.62533 l -1.828,-1.59067 -8.92266,10.61467 1.73466,1.54133 c 6.94534,6.20267 15.5,9.48134 24.724,9.48134 13.29467,0 22.21067,-7.61734 22.21067,-19.10667 0,-12.15333 -9.94,-16.208 -19.66667,-18.57733"
       style="fill:#0a0a0d;fill-opacity:1;fill-rule:nonzero;stroke:none"
       id="path64" /><path
       inkscape:connector-curvature="0"
       d="m 172.04146,463.95332 -10.76,0 5.38,-10.9 5.38,10.9 z m -26.088,0 -17.232,0 11.396,11.53733 -6.10667,12.07067 15.62134,0 5,-10.136 24.05733,0 4.99067,10.136 15.95066,0 -32.808,-64.82133 -20.86933,41.21333"
       style="fill:#0a0a0d;fill-opacity:1;fill-rule:nonzero;stroke:none"
       id="path66" /></g></svg>