<?xml version="1.0" standalone="no"?>
<!DOCTYPE svg PUBLIC "-//W3C//DTD SVG 20010904//EN"
 "http://www.w3.org/TR/2001/REC-SVG-20010904/DTD/svg10.dtd">
<svg version="1.0" xmlns="http://www.w3.org/2000/svg"
 width="700.000000pt" height="700.000000pt" viewBox="0 0 700.000000 700.000000"
 preserveAspectRatio="xMidYMid meet">
<metadata>
Created by potrace 1.11, written by Peter Selinger 2001-2013
</metadata>
<g transform="translate(0.000000,700.000000) scale(0.100000,-0.100000)"
fill="#000000" stroke="none">
<path d="M743 6222 c-15 -2 -20 -8 -16 -19 3 -8 0 -19 -8 -24 -10 -6 -10 -9
-1 -9 17 0 15 -20 -5 -42 -13 -14 -14 -19 -3 -16 9 2 15 -7 16 -25 2 -19 -1
-25 -9 -21 -8 5 -8 3 1 -7 6 -7 12 -17 12 -22 0 -4 -6 -5 -12 -1 -8 5 -8 1 1
-10 13 -15 13 -19 0 -27 -8 -5 -9 -9 -3 -9 6 0 11 -20 11 -45 1 -31 -3 -43
-11 -38 -6 3 -6 1 2 -8 6 -7 12 -19 12 -27 0 -8 -5 -10 -12 -6 -10 6 -10 4 0
-7 6 -7 12 -17 12 -22 0 -4 -6 -5 -12 -1 -10 6 -10 4 -2 -7 13 -16 13 -98 0
-118 -6 -9 -5 -12 1 -8 13 8 12 -62 -1 -82 -6 -10 -6 -12 2 -7 7 4 12 2 12 -3
0 -6 -6 -11 -12 -11 -10 0 -9 -3 1 -9 10 -7 11 -13 1 -31 -7 -12 -8 -20 -2
-16 12 7 11 -63 -2 -83 -6 -10 -6 -12 2 -7 7 4 12 2 12 -3 0 -6 -6 -11 -12
-11 -10 0 -9 -3 1 -9 10 -7 11 -13 1 -31 -7 -12 -8 -20 -2 -16 12 7 11 -63 -2
-83 -6 -10 -6 -12 2 -7 7 4 12 2 12 -3 0 -6 -6 -11 -12 -11 -10 0 -9 -3 1 -9
10 -7 11 -13 1 -31 -7 -12 -8 -20 -2 -16 12 7 11 -63 -2 -83 -6 -10 -6 -12 2
-7 7 4 12 2 12 -3 0 -6 -6 -11 -12 -11 -9 0 -9 -3 1 -9 13 -8 13 -12 0 -27 -9
-11 -9 -15 -1 -10 6 4 12 3 12 -3 0 -5 -4 -13 -10 -16 -5 -3 -10 -12 -10 -18
0 -7 4 -6 10 3 8 12 10 13 10 1 0 -8 -8 -23 -17 -33 -13 -14 -14 -19 -3 -16 9
2 15 -7 16 -25 2 -19 -1 -25 -9 -21 -8 5 -8 3 1 -7 6 -7 12 -17 12 -22 0 -4
-6 -5 -12 -1 -8 5 -8 1 1 -10 13 -15 13 -19 0 -27 -8 -5 -9 -9 -3 -9 6 0 11
-20 11 -45 1 -31 -3 -43 -11 -38 -6 3 -6 1 2 -8 16 -17 16 -42 0 -33 -10 6
-10 4 0 -7 15 -16 16 -33 0 -23 -7 5 -8 3 -2 -7 13 -21 14 -123 0 -131 -8 -6
-8 -8 2 -8 6 0 12 -7 12 -15 0 -8 -6 -15 -12 -15 -8 0 -9 -3 -3 -8 16 -11 19
-46 3 -36 -9 6 -9 3 1 -10 13 -15 13 -19 0 -27 -10 -6 -10 -9 -1 -9 6 0 12 -5
12 -11 0 -5 -6 -7 -12 -3 -8 5 -8 1 1 -10 13 -15 13 -19 0 -27 -8 -5 -9 -9 -3
-9 6 0 11 -20 11 -45 1 -31 -3 -43 -11 -38 -6 3 -6 1 1 -8 17 -17 17 -42 1
-33 -10 6 -10 4 0 -7 15 -16 16 -33 0 -23 -7 5 -8 3 -2 -7 13 -21 14 -123 0
-131 -8 -6 -8 -8 2 -8 6 0 12 -7 12 -15 0 -8 -6 -15 -12 -15 -8 0 -9 -3 -3 -8
16 -11 19 -46 3 -36 -9 6 -9 3 1 -10 13 -15 13 -19 0 -27 -10 -6 -10 -9 -1 -9
6 0 12 -5 12 -11 0 -5 -6 -7 -12 -3 -8 5 -8 1 1 -10 13 -15 13 -19 0 -27 -8
-5 -9 -9 -3 -9 6 0 11 -20 11 -45 1 -31 -3 -43 -11 -38 -7 4 -7 2 1 -8 10 -12
10 -18 0 -29 -7 -8 -8 -11 -1 -7 14 8 14 -61 0 -82 -6 -10 -6 -12 2 -7 7 4 12
2 12 -3 0 -6 -6 -11 -12 -11 -10 0 -9 -3 1 -9 10 -7 11 -13 1 -31 -7 -12 -8
-20 -2 -16 12 7 11 -63 -2 -83 -6 -10 -6 -12 2 -7 7 4 12 2 12 -3 0 -6 -6 -11
-12 -11 -10 0 -9 -3 1 -9 10 -7 11 -13 1 -31 -7 -12 -8 -20 -2 -16 12 7 11
-63 -2 -83 -6 -10 -6 -12 2 -7 7 4 12 2 12 -3 0 -6 -6 -11 -12 -11 -10 0 -9
-3 1 -9 10 -7 11 -13 1 -31 -7 -12 -8 -20 -2 -16 12 7 11 -63 -2 -83 -6 -10
-6 -12 2 -7 7 4 12 2 12 -3 0 -6 -6 -11 -12 -11 -9 0 -10 -3 -2 -8 13 -8 12
-40 -1 -61 -5 -10 -4 -12 3 -7 16 10 15 -7 0 -23 -7 -8 -8 -11 -2 -8 14 8 15
-106 0 -115 -8 -6 -7 -8 2 -8 6 0 12 -7 12 -15 0 -8 -6 -15 -12 -15 -8 0 -9
-3 -3 -8 16 -11 19 -46 3 -36 -9 6 -9 3 1 -10 13 -15 13 -19 0 -27 -10 -6 -10
-9 -1 -9 6 0 12 -5 12 -11 0 -5 -6 -7 -12 -3 -8 5 -8 1 1 -10 13 -15 13 -19 0
-27 -8 -5 -9 -9 -3 -9 6 0 11 -20 11 -45 1 -31 -3 -43 -11 -38 -6 3 -6 1 2 -8
16 -17 16 -42 0 -33 -10 6 -10 4 0 -7 15 -16 16 -33 0 -23 -8 5 -8 3 -2 -7 14
-22 14 -160 0 -152 -6 3 -6 0 2 -8 15 -16 16 -33 0 -23 -7 5 -8 3 -2 -7 14
-22 14 -93 1 -101 -9 -6 -9 -8 1 -8 6 0 12 -7 12 -15 0 -8 -6 -15 -12 -15 -8
0 -9 -3 -3 -8 16 -11 19 -46 3 -36 -9 6 -9 3 1 -10 13 -15 13 -19 0 -27 -10
-6 -10 -9 -1 -9 6 0 12 -5 12 -11 0 -5 -6 -7 -12 -3 -8 5 -8 1 1 -10 13 -15
13 -19 0 -27 -8 -5 -9 -9 -3 -9 6 0 11 -20 11 -45 1 -31 -3 -43 -11 -38 -6 3
-6 1 2 -8 6 -7 12 -19 12 -27 0 -8 -5 -10 -12 -6 -10 6 -10 4 0 -7 15 -16 16
-33 0 -23 -8 5 -8 3 -2 -7 13 -20 13 -162 0 -171 -8 -5 -8 -8 0 -8 12 0 13
-98 1 -117 -4 -7 -2 -21 5 -32 9 -16 9 -23 -3 -37 -9 -11 -9 -15 -1 -10 6 4
12 2 12 -3 0 -6 -6 -11 -12 -11 -10 0 -9 -3 1 -9 10 -7 11 -13 1 -31 -7 -12
-8 -20 -2 -16 12 7 11 -63 -2 -83 -6 -10 -6 -12 2 -7 7 4 12 2 12 -3 0 -6 -6
-11 -12 -11 -10 0 -9 -3 1 -9 10 -7 11 -13 1 -31 -7 -12 -8 -20 -2 -16 12 7
11 -63 -2 -83 -6 -10 -6 -12 2 -7 7 4 12 2 12 -3 0 -6 -6 -11 -12 -11 -9 0 -9
-3 1 -9 13 -8 13 -12 0 -27 -9 -11 -9 -15 -2 -10 7 4 13 3 13 -3 0 -5 -5 -13
-10 -16 -6 -3 -10 -12 -10 -18 0 -7 4 -6 10 3 8 12 10 13 10 1 0 -8 -8 -23
-17 -33 -13 -14 -14 -19 -3 -16 9 2 15 -7 16 -25 2 -19 -1 -25 -9 -21 -8 5 -8
3 1 -7 16 -17 16 -32 0 -23 -8 5 -8 1 1 -10 13 -15 13 -19 0 -27 -8 -5 -9 -9
-3 -9 6 0 11 -20 11 -45 1 -31 -3 -43 -11 -38 -6 4 -5 -1 3 -11 13 -15 13 -19
0 -27 -8 -5 -9 -9 -3 -9 7 0 12 -17 11 -44 0 -29 -4 -43 -11 -39 -6 3 -6 0 1
-7 10 -11 9 -16 -5 -27 -13 -10 -14 -13 -2 -11 11 2 15 -7 16 -37 0 -22 -4
-45 -9 -52 -6 -9 25 -11 127 -10 85 1 136 -2 136 -8 0 -7 3 -7 8 0 9 13 145
14 154 0 5 -6 8 -6 8 0 0 14 153 14 162 1 5 -7 8 -7 8 -1 0 13 89 13 109 1 10
-6 12 -5 7 2 -9 15 -1 15 26 1 11 -6 18 -7 14 -1 -8 13 67 10 76 -3 5 -7 8 -7
8 0 0 13 89 13 109 1 10 -6 12 -5 7 2 -9 15 -1 15 26 1 11 -6 18 -7 14 -1 -8
13 67 10 76 -3 5 -7 8 -7 8 0 0 13 89 13 109 1 10 -6 12 -5 7 2 -9 15 -1 15
26 1 11 -6 18 -7 14 -1 -8 13 67 10 76 -3 5 -7 8 -7 8 0 0 13 89 13 109 1 10
-6 12 -5 7 2 -9 15 -1 15 26 1 11 -6 18 -7 14 -1 -8 13 67 10 76 -3 5 -7 8 -7
8 0 0 13 89 13 109 1 10 -6 12 -5 7 2 -9 15 -1 15 26 1 11 -6 18 -7 14 -1 -8
13 67 10 76 -3 5 -7 8 -7 8 0 0 13 89 13 109 1 10 -6 12 -5 7 2 -9 15 -1 15
26 1 11 -6 18 -7 14 -1 -8 13 67 10 76 -3 5 -7 8 -7 8 0 0 13 89 13 109 1 10
-6 12 -5 7 2 -9 15 -1 15 26 1 11 -6 18 -7 14 -1 -8 13 67 10 76 -3 5 -7 8 -7
8 0 0 13 89 13 109 1 10 -6 12 -5 7 2 -9 15 -1 15 26 1 11 -6 18 -7 14 -1 -8
13 67 10 76 -3 5 -7 8 -7 8 0 0 13 89 13 109 1 10 -6 12 -5 7 2 -9 15 -1 15
26 1 11 -6 18 -7 14 -1 -8 13 67 10 76 -3 5 -7 8 -7 8 0 0 13 89 13 109 1 10
-6 12 -5 7 2 -9 15 -1 15 26 1 11 -6 18 -7 15 -2 -3 5 12 9 34 9 21 0 39 -5
39 -11 0 -6 3 -7 8 0 9 13 135 13 144 0 5 -6 8 -6 8 0 0 13 150 14 150 0 0 -7
3 -7 8 0 9 13 145 14 154 0 5 -6 8 -6 8 0 0 13 150 14 150 0 0 -7 3 -7 8 0 9
13 145 14 154 0 5 -6 8 -6 8 0 0 13 150 14 150 0 0 -7 3 -7 8 0 9 13 145 14
154 0 5 -6 8 -6 8 0 0 13 150 14 150 0 0 -7 3 -7 8 0 9 13 145 14 154 0 5 -6
8 -6 8 0 0 13 150 14 150 0 0 -7 3 -7 8 0 9 13 145 14 154 0 5 -6 8 -6 8 0 0
13 150 14 150 0 0 -7 3 -7 8 0 10 14 152 14 152 0 0 -6 3 -7 8 0 9 13 145 14
154 0 5 -7 8 -7 8 0 0 7 23 10 55 10 33 -1 55 3 56 9 1 6 2 29 3 52 l1 41 -37
-2 c-21 -2 -38 1 -38 7 0 5 -5 6 -10 3 -17 -10 -80 -13 -74 -4 3 5 0 9 -5 9
-6 0 -11 -4 -11 -8 0 -10 -172 -8 -188 2 -7 4 -12 3 -12 -2 0 -4 -24 -8 -54
-8 -30 1 -52 4 -49 9 2 4 -1 7 -6 7 -6 0 -11 -4 -11 -8 0 -10 -172 -8 -188 2
-7 4 -12 3 -12 -2 0 -4 -24 -8 -54 -8 -30 1 -52 4 -49 9 2 4 -1 7 -6 7 -6 0
-11 -4 -11 -8 0 -10 -172 -8 -188 2 -7 4 -12 3 -12 -2 0 -4 -24 -8 -54 -8 -30
1 -52 4 -49 9 2 4 -1 7 -6 7 -6 0 -11 -4 -11 -8 0 -10 -172 -8 -188 2 -7 4
-12 3 -12 -2 0 -4 -24 -8 -54 -8 -30 1 -52 4 -49 8 2 5 -1 8 -6 8 -6 0 -11 -4
-11 -8 0 -10 -172 -8 -188 2 -7 4 -12 3 -12 -2 0 -4 -24 -8 -54 -8 -30 1 -52
4 -49 9 2 4 -1 7 -6 7 -6 0 -11 -4 -11 -8 0 -10 -172 -8 -188 2 -7 4 -12 3
-12 -2 0 -4 -24 -8 -54 -8 -30 1 -52 4 -49 9 2 4 -1 7 -6 7 -6 0 -11 -3 -11
-8 0 -4 -61 -7 -135 -6 -98 1 -139 5 -152 15 -16 13 -17 12 -5 -3 12 -15 10
-16 -18 -13 -17 2 -35 7 -40 10 -6 3 -10 2 -10 -3 0 -4 -24 -8 -54 -8 -30 1
-52 4 -49 9 2 4 -1 7 -6 7 -6 0 -11 -3 -11 -8 0 -10 -263 -7 -280 3 -8 5 -11
4 -7 -2 3 -5 -16 -9 -48 -9 -29 1 -51 4 -48 9 2 4 -1 7 -6 7 -6 0 -11 -4 -11
-8 0 -4 -33 -8 -74 -7 -41 0 -72 3 -69 8 2 4 -1 7 -6 7 -6 0 -11 -4 -11 -9 0
-5 -11 -8 -24 -7 -13 0 -22 5 -18 10 3 5 -1 6 -9 1 -24 -15 -132 -11 -154 5
-18 14 -19 14 -7 -2 12 -15 10 -16 -18 -13 -17 2 -35 7 -40 10 -6 3 -10 2 -10
-3 0 -4 -24 -8 -54 -8 -30 1 -52 4 -49 9 2 4 -1 7 -6 7 -6 0 -11 -3 -11 -8 0
-10 -263 -7 -280 3 -8 5 -11 4 -7 -2 3 -5 -16 -9 -48 -9 -29 1 -51 4 -48 9 2
4 -1 7 -6 7 -6 0 -11 -4 -11 -8 0 -4 -33 -8 -74 -7 -41 0 -72 3 -69 8 2 4 -1
7 -6 7 -6 0 -11 -4 -11 -9 0 -5 -11 -8 -24 -7 -13 0 -22 5 -18 10 3 5 -1 6 -9
1 -24 -15 -132 -11 -154 5 -18 14 -19 14 -7 -2 12 -15 10 -16 -18 -13 -17 2
-35 7 -40 10 -6 3 -10 2 -10 -3 0 -4 -24 -8 -54 -8 -30 1 -52 4 -49 9 2 4 -1
7 -6 7 -6 0 -11 -3 -11 -8 0 -4 -61 -7 -135 -6 -98 1 -139 5 -152 15 -16 13
-17 12 -5 -3 12 -15 10 -16 -18 -13 -17 2 -35 7 -40 10 -6 3 -10 2 -10 -3 0
-4 -24 -8 -54 -8 -30 1 -52 4 -49 9 2 4 -1 7 -6 7 -6 0 -11 -3 -11 -8 0 -4
-54 -7 -119 -7 -71 0 -117 4 -113 9 3 5 -1 7 -10 4 -11 -5 -15 4 -15 45 -1 29
4 58 10 66 9 12 9 13 -1 7 -10 -6 -12 63 -11 338 0 260 4 345 12 340 8 -5 8
-2 0 7 -14 14 -18 73 -5 65 5 -3 9 1 9 9 0 8 -4 12 -8 10 -4 -3 -6 3 -5 12 2
9 9 19 16 21 8 3 10 0 5 -7 -5 -9 -2 -9 13 0 22 14 23 29 2 54 -7 9 -9 15 -4
14 19 -3 37 1 31 8 -4 3 0 18 9 31 16 24 16 25 -2 19 -18 -7 -17 -6 1 8 11 9
26 13 34 10 10 -4 9 0 -4 15 -10 11 -15 23 -12 27 4 3 7 2 7 -4 0 -5 12 -15
28 -22 24 -10 25 -10 9 3 -23 18 -32 57 -11 49 17 -6 19 13 2 21 -9 4 -8 5 2
5 38 -3 42 1 36 29 l-6 27 15 -25 15 -25 -6 33 c-5 26 -3 32 11 32 14 0 15 3
6 14 -9 10 -7 17 6 27 16 13 17 12 5 -2 -10 -14 -10 -18 3 -23 9 -3 14 -2 10
3 -8 13 5 42 16 35 5 -3 8 0 7 8 -2 7 2 12 8 11 7 -1 10 6 7 17 -3 11 -9 17
-14 14 -5 -3 -7 -9 -4 -14 3 -5 0 -12 -7 -17 -16 -10 -42 -14 -33 -5 4 4 12 7
18 7 7 0 11 10 11 22 -1 13 2 21 6 18 10 -6 45 33 37 42 -12 11 15 34 27 24
14 -12 15 27 1 50 -8 12 -6 12 9 0 9 -8 14 -21 11 -30 -3 -9 4 -5 14 9 19 23
19 27 4 50 l-16 25 23 -20 23 -20 -11 20 c-7 15 -7 26 1 40 6 11 12 26 13 33
4 22 13 27 26 14 9 -9 8 -12 -7 -12 -10 0 -15 -3 -12 -7 4 -3 0 -17 -8 -29
-11 -17 -12 -25 -3 -30 6 -4 8 -3 4 4 -3 6 2 15 11 21 10 6 14 11 9 11 -5 0
-2 7 5 16 17 21 23 58 7 48 -7 -4 -8 -3 -4 5 6 9 12 9 24 -1 15 -11 15 -10 -1
14 -16 25 -16 27 0 21 10 -4 14 -2 9 5 -3 6 -2 13 4 17 6 4 7 11 4 17 -4 7 -2
8 4 4 8 -5 12 1 12 16 0 18 2 20 10 8 8 -13 11 -13 22 -1 7 8 8 11 2 8 -7 -4
-14 -1 -17 7 -4 10 3 13 25 11 21 -2 27 0 19 8 -14 14 -14 30 0 21 8 -5 8 -1
0 14 -7 14 -8 23 -1 27 6 4 8 11 5 16 -7 10 21 53 35 55 6 1 17 2 26 3 8 0 13
5 9 11 -3 5 -12 7 -20 3 -8 -3 -15 0 -15 7 0 6 5 8 10 5 6 -3 10 0 10 7 0 8 5
6 11 -5 6 -9 15 -15 20 -11 5 3 9 2 8 -3 -4 -16 13 -43 24 -36 6 3 7 1 3 -5
-4 -7 -1 -12 6 -12 7 -1 2 -8 -12 -16 -14 -8 -17 -13 -8 -10 11 3 22 -2 28
-14 8 -15 8 -20 -1 -20 -7 0 -9 -3 -6 -6 4 -4 13 -1 22 6 13 11 14 10 9 -5 -4
-10 -1 -21 7 -26 12 -7 12 -9 0 -9 -11 0 -9 -4 4 -14 11 -8 24 -11 30 -8 5 3
1 -7 -9 -23 -10 -17 -15 -27 -11 -23 5 4 15 2 24 -5 14 -10 14 -10 3 5 -10 12
-10 18 -1 24 7 4 9 3 5 -4 -3 -6 -1 -14 5 -18 9 -5 7 -11 -5 -20 -11 -8 -13
-14 -7 -19 6 -3 11 -1 11 4 0 6 8 11 17 11 13 0 14 -3 6 -11 -13 -13 -6 -39 9
-39 6 0 4 8 -3 17 -13 16 -12 17 4 4 13 -11 15 -17 6 -28 -10 -11 -8 -12 7 -6
16 6 17 4 7 -8 -9 -12 -10 -18 -1 -27 6 -6 12 -22 12 -36 2 -33 41 -77 61 -70
8 4 15 1 15 -6 0 -6 -5 -8 -11 -4 -7 4 -10 1 -7 -7 3 -8 10 -14 16 -14 5 0 14
-4 19 -9 5 -5 3 -6 -4 -2 -7 4 -13 3 -13 -2 0 -6 7 -12 15 -16 12 -4 13 -11 5
-31 -13 -34 -12 -45 1 -22 5 9 15 17 22 17 8 0 8 -3 2 -8 -12 -9 -16 -54 -4
-46 5 3 7 9 4 14 -3 5 -2 11 3 14 13 8 11 -27 -2 -44 -10 -13 -9 -13 7 -1 17
13 18 12 13 -14 -3 -15 -3 -25 1 -22 3 3 12 -1 21 -9 13 -14 13 -17 1 -25 -8
-5 -9 -9 -3 -9 5 0 16 6 23 13 11 10 12 8 4 -8 -16 -33 -10 -50 17 -50 20 -1
25 -6 25 -27 -1 -17 4 -24 12 -21 9 4 11 0 7 -11 -3 -9 -11 -13 -17 -9 -6 4
-7 1 -3 -6 6 -9 13 -8 28 6 21 18 21 18 9 -5 -7 -13 -9 -27 -5 -30 4 -4 9 -1
11 6 5 13 23 7 23 -9 0 -6 -4 -7 -10 -4 -5 3 -10 -1 -10 -10 0 -9 5 -13 10
-10 6 3 10 0 10 -7 0 -10 3 -9 11 2 9 13 10 13 6 -1 -3 -9 0 -22 6 -28 9 -10
9 -12 -3 -9 -8 2 -20 9 -26 17 -9 11 -11 11 -11 -3 0 -9 4 -17 9 -17 4 -1 13
-3 18 -4 6 -1 15 -3 20 -4 6 0 10 -6 10 -12 0 -6 -7 -8 -16 -5 -13 5 -14 4 -6
-7 7 -8 9 -16 6 -20 -3 -3 6 -4 20 -3 14 2 31 -4 38 -12 10 -13 10 -14 1 -8
-8 4 -13 2 -13 -6 0 -9 -3 -9 -10 2 -6 9 -10 10 -10 3 0 -6 5 -15 10 -18 6 -4
8 -10 5 -15 -3 -5 5 -14 17 -20 19 -9 21 -9 8 2 -8 7 -16 18 -17 25 -3 13 22
12 34 -2 4 -4 2 -5 -4 -1 -16 9 -17 -10 -2 -19 7 -5 5 -13 -6 -25 -11 -12 -13
-20 -5 -25 6 -3 9 -1 8 6 -2 6 3 14 10 16 8 3 10 -1 5 -13 -5 -12 -3 -15 6 -9
10 6 11 2 6 -16 -5 -19 -4 -21 4 -9 9 13 11 12 11 -3 0 -14 4 -16 18 -8 14 7
19 6 19 -4 0 -8 -5 -11 -10 -8 -6 4 -7 1 -3 -6 5 -7 11 -10 14 -7 3 3 12 0 20
-7 13 -10 14 -9 4 10 -10 19 -10 21 5 18 10 -2 25 -6 34 -10 10 -4 19 0 23 10
3 9 2 14 -2 11 -5 -3 -9 1 -9 7 0 8 12 12 29 11 15 -1 25 2 22 7 -5 8 9 13 29
10 17 -3 5 18 -14 24 -17 6 -18 9 -8 16 8 4 19 3 26 -3 8 -6 16 -8 20 -4 3 3
2 6 -4 6 -6 0 -13 7 -17 15 -3 8 -2 14 2 14 21 -3 32 2 26 13 -5 7 -3 8 5 4 7
-5 10 -15 7 -25 -4 -11 -2 -10 10 4 8 11 20 19 25 18 5 -2 9 2 9 8 0 6 -7 9
-15 5 -18 -7 -15 12 5 35 10 11 27 16 47 14 18 -1 30 1 27 6 -3 5 -10 7 -15 4
-5 -4 -9 -1 -9 4 0 6 6 11 13 11 8 0 7 4 -3 10 -8 5 -11 10 -6 10 5 0 17 -7
27 -16 13 -12 19 -12 25 -3 4 7 3 10 -4 5 -6 -3 -13 -2 -17 4 -5 9 6 14 26 12
3 -1 6 5 6 13 0 11 -5 11 -20 4 -10 -6 -21 -8 -24 -6 -2 3 5 8 16 12 12 3 21
11 21 16 0 5 5 9 11 9 5 0 7 -4 4 -10 -3 -5 -1 -10 4 -10 6 0 11 6 11 13 0 8
4 7 10 -3 6 -9 10 -10 10 -3 0 7 -8 17 -17 23 -17 11 -17 11 1 6 13 -5 17 -2
12 9 -6 18 -2 19 25 5 15 -8 21 -7 25 5 3 8 10 13 14 10 10 -6 8 15 -3 32 -6
9 -3 11 10 6 16 -6 17 -5 3 12 -14 17 -14 18 10 5 23 -12 24 -12 11 4 -12 14
-12 16 4 10 14 -6 16 -4 10 7 -7 11 -6 12 6 2 9 -8 20 -9 29 -3 8 6 11 10 6
10 -5 0 -3 6 4 14 9 12 17 12 35 4 14 -6 22 -14 20 -19 -3 -4 -1 -10 4 -13 5
-4 8 1 7 10 -1 8 -7 19 -13 22 -7 5 -6 11 4 21 12 11 14 10 11 -5 -2 -11 2
-18 7 -17 6 1 10 -16 9 -38 0 -21 1 -37 4 -35 9 9 40 -28 35 -43 -3 -12 -1
-11 7 2 10 15 8 21 -6 31 -9 7 -19 23 -21 35 -3 20 -2 20 15 3 10 -9 15 -18
11 -20 -10 -4 34 -48 44 -44 5 1 6 -2 2 -8 -3 -5 -2 -10 2 -10 5 0 8 -13 7
-29 -2 -30 19 -50 32 -30 4 6 11 6 20 -2 7 -6 12 -15 9 -19 -8 -12 10 -20 49
-24 31 -2 34 0 24 17 -8 16 -7 18 10 13 12 -4 24 -2 28 5 4 8 3 9 -4 5 -7 -4
-12 -3 -12 3 0 18 21 23 38 9 15 -11 15 -11 5 3 -7 9 -9 20 -5 24 4 5 2 5 -5
1 -6 -3 -15 -1 -19 6 -4 7 -3 9 1 5 5 -4 17 7 28 25 16 30 17 23 1 -17 -3 -8
-2 -15 4 -15 5 0 13 16 16 36 6 30 9 34 22 23 8 -7 14 -8 13 -3 -4 23 2 36 16
30 22 -8 18 2 -6 15 -13 7 -19 7 -15 1 3 -6 2 -13 -3 -16 -5 -4 -8 2 -6 11 1
12 10 17 24 16 19 -3 20 -1 10 20 -12 21 -11 21 8 5 22 -20 33 -23 33 -7 0 5
-4 8 -9 5 -5 -3 -11 0 -14 7 -7 20 -7 27 1 25 4 -2 6 -6 5 -10 -3 -9 25 -4 34
7 4 4 3 5 -3 2 -19 -11 -23 16 -8 48 9 19 12 22 8 8 -3 -14 -1 -23 6 -23 6 0
8 -6 4 -13 -4 -6 -3 -9 1 -5 5 5 8 25 8 45 0 21 7 49 15 62 14 21 17 22 28 7
10 -15 12 -15 18 -1 3 9 2 14 -3 11 -5 -3 -12 1 -15 10 -8 22 -8 24 6 21 7 -1
12 3 13 9 0 6 9 19 19 30 19 18 20 18 13 0 -6 -14 -4 -17 8 -12 9 3 13 2 10
-4 -3 -5 -1 -18 5 -27 11 -16 11 -16 6 -1 -3 10 0 20 7 24 7 4 9 4 5 -1 -11
-11 11 -47 24 -39 6 4 8 3 5 -4 -4 -5 -15 -9 -25 -7 -9 1 -11 0 -4 -2 15 -6
16 -23 0 -23 -6 0 -8 -3 -5 -6 4 -4 13 -1 21 5 11 9 16 9 22 0 4 -7 3 -9 -4
-5 -11 7 -28 -31 -18 -41 3 -4 6 1 6 10 0 11 5 14 16 10 8 -3 13 -12 10 -19
-3 -7 5 -21 17 -30 14 -10 16 -14 5 -11 -9 3 -19 1 -22 -6 -3 -7 -4 -3 -3 7 1
10 -4 20 -11 22 -7 1 -8 0 -3 -2 6 -3 8 -11 5 -18 -3 -7 3 -19 12 -27 12 -9
15 -10 10 -1 -4 6 -2 12 3 12 6 0 11 -9 11 -20 0 -18 11 -25 33 -21 5 1 6 -3
2 -9 -3 -6 -12 -7 -18 -4 -7 4 -9 4 -5 -1 4 -4 2 -15 -5 -23 -8 -10 -2 -9 18
4 16 10 26 14 22 7 -4 -6 -4 -13 0 -16 5 -2 3 -2 -4 -1 -7 2 -15 -2 -19 -8 -4
-6 -3 -8 2 -5 6 3 16 2 24 -3 11 -7 11 -12 2 -23 -9 -11 -9 -14 3 -14 8 0 12
4 9 8 -2 4 1 11 7 15 8 4 9 3 5 -5 -4 -6 0 -14 8 -17 9 -3 16 -11 16 -16 0 -6
-6 -5 -15 2 -10 8 -15 9 -15 2 0 -12 40 -38 52 -34 4 1 4 -6 1 -15 -6 -15 -7
-15 -18 1 -14 19 -35 21 -35 4 0 -6 3 -8 7 -5 3 4 12 2 20 -4 10 -9 11 -15 1
-26 -9 -11 -8 -13 3 -11 9 2 13 -4 11 -17 -2 -16 -1 -17 7 -5 6 9 6 18 0 26
-6 8 -5 13 5 17 10 4 13 -4 12 -38 -1 -24 2 -43 5 -42 4 1 15 -7 24 -18 9 -11
14 -15 11 -8 -4 6 -2 14 3 17 15 10 6 -25 -10 -36 -11 -8 -10 -9 4 -4 11 4 29
-2 43 -13 l24 -19 -27 -10 -28 -10 27 -1 c35 -1 45 -18 51 -81 2 -14 8 -35 15
-46 6 -12 8 -25 4 -29 -4 -5 -1 -5 6 -1 11 6 17 -5 13 -26 0 -5 4 -7 10 -5 6
1 14 -4 17 -12 3 -10 0 -11 -9 -5 -12 7 -12 5 -1 -9 8 -9 10 -22 6 -28 -5 -8
-3 -9 5 -5 7 5 10 14 7 22 -3 7 -1 16 5 19 5 4 12 -7 15 -24 4 -17 11 -31 16
-31 5 0 6 -6 2 -12 -5 -9 -2 -9 9 1 10 8 17 9 17 3 0 -6 -10 -18 -22 -26 -19
-13 -20 -18 -9 -28 8 -8 11 -8 8 -2 -4 7 1 18 10 25 14 13 16 11 11 -13 -3
-15 -2 -27 1 -26 23 2 41 -4 36 -12 -3 -5 -13 -7 -23 -4 -14 5 -14 4 -2 -4 8
-6 18 -8 22 -6 4 3 8 -2 8 -10 0 -9 5 -16 11 -16 5 0 7 6 3 13 -4 6 6 0 23
-15 30 -29 76 -41 54 -14 -8 10 -8 16 2 25 8 6 17 8 20 5 3 -3 11 -3 17 1 8 5
8 11 -1 21 -10 13 -6 18 14 15 4 0 7 4 7 9 0 6 -4 11 -10 11 -5 1 -14 2 -19 3
-5 0 -13 5 -18 9 -4 5 -3 8 2 7 21 -5 25 1 16 18 -8 14 -6 19 5 19 8 0 13 -6
10 -12 -2 -6 2 -12 9 -12 20 0 14 20 -10 34 -11 7 -15 12 -8 13 14 0 13 40 -1
40 -5 0 -7 3 -4 6 4 3 16 1 27 -5 17 -10 20 -9 14 5 -5 13 -3 15 8 9 11 -7 12
-6 3 6 -6 8 -10 22 -9 32 2 9 -1 15 -5 12 -5 -3 -7 -14 -5 -25 2 -11 0 -20 -4
-20 -5 0 -8 15 -7 34 1 31 3 33 24 25 20 -8 21 -7 12 10 -12 24 -13 34 -2 27
5 -3 8 8 8 24 0 15 -4 27 -10 26 -6 -2 -7 -1 -3 2 4 2 3 9 -2 16 -6 8 -6 17 0
26 8 12 9 11 7 -4 -2 -10 3 -21 10 -23 8 -3 10 1 5 14 -6 16 -5 17 13 3 18
-14 18 -13 -1 9 -11 13 -19 25 -17 27 8 13 0 16 -9 4 -7 -10 -9 -11 -7 -2 2 8
7 12 10 10 4 -2 13 5 21 16 16 22 11 69 -7 59 -6 -4 -5 0 2 9 10 13 10 17 0
21 -8 3 -5 6 7 6 15 1 16 4 7 13 -7 7 -12 17 -12 23 0 5 5 3 10 -5 7 -11 10
-11 10 -2 0 7 5 10 10 7 6 -4 9 -1 8 7 -2 7 3 12 10 10 8 -1 11 2 7 8 -4 7
-12 7 -25 0 -16 -9 -18 -7 -15 12 3 12 9 26 15 32 15 15 13 39 -2 30 -16 -9
11 26 31 42 11 9 10 13 -4 27 -15 16 -15 17 4 17 15 0 20 5 18 20 -2 11 -7 23
-12 27 -4 5 -5 1 0 -7 5 -8 4 -12 0 -7 -5 4 -10 14 -11 23 -2 14 0 14 21 0 15
-10 26 -12 30 -6 4 6 1 9 -6 8 -6 -2 -14 3 -16 10 -3 6 1 12 7 12 9 0 10 3 1
13 -8 10 -6 19 9 35 12 12 16 23 10 27 -6 4 -8 10 -5 15 3 5 1 11 -4 15 -6 3
-8 -4 -6 -16 2 -12 -1 -31 -7 -43 -7 -11 -11 -27 -10 -33 2 -7 -2 -13 -7 -13
-15 0 -23 18 -11 25 6 4 7 11 4 17 -4 6 -2 8 3 5 6 -4 13 2 16 13 3 11 1 23
-4 26 -6 3 -6 10 -1 17 5 7 8 19 7 28 -2 9 3 16 11 16 10 0 11 -4 4 -12 -7 -9
-6 -14 3 -18 11 -4 13 2 11 26 -3 19 3 38 13 50 10 11 12 17 5 13 -9 -6 -11
-1 -8 18 3 17 -1 29 -12 36 -9 5 -12 10 -5 10 7 0 10 6 7 14 -7 19 15 31 29
16 9 -10 8 -12 -5 -7 -10 4 -18 2 -18 -3 0 -13 27 -13 35 -1 3 5 0 13 -6 17
-8 4 -7 9 2 15 7 4 10 11 6 16 -5 4 -11 3 -15 -2 -4 -6 -14 -11 -22 -13 -13
-2 -13 -1 0 10 9 7 15 24 15 38 -1 14 3 33 7 43 6 11 5 17 -3 17 -7 0 -10 3
-6 6 13 14 27 -7 17 -27 -7 -13 -7 -19 0 -19 5 0 10 7 10 16 0 9 5 12 12 8 6
-4 8 -3 4 4 -3 5 -3 12 1 15 5 2 2 2 -4 1 -7 -2 -13 3 -13 11 0 7 8 16 18 18
16 4 16 5 0 6 -19 1 -26 31 -8 31 6 0 10 -4 10 -10 0 -5 5 -10 11 -10 8 0 8 4
0 14 -9 11 -9 15 1 19 10 4 10 6 1 6 -7 1 -13 6 -13 12 0 5 4 8 8 5 4 -2 9 6
10 20 1 13 -3 24 -9 24 -5 0 -7 -5 -4 -10 4 -6 1 -17 -5 -25 -6 -8 -8 -20 -4
-27 4 -7 4 -10 -1 -6 -4 4 -15 2 -24 -5 -14 -11 -14 -10 -2 5 7 10 11 24 8 32
-4 10 -1 13 8 10 9 -4 13 1 12 15 -1 12 -6 21 -12 21 -5 0 -2 5 8 11 9 6 14
15 11 21 -4 7 -2 8 4 4 7 -4 12 -3 12 3 0 6 8 8 18 5 13 -5 14 -4 3 4 -8 6
-23 9 -34 6 -17 -3 -18 -2 -5 14 8 9 14 31 14 48 -1 19 3 31 11 31 16 0 16 -9
0 -27 -6 -7 3 -3 21 9 17 12 32 25 32 28 0 3 -6 0 -13 -6 -15 -12 -27 -5 -27
16 0 8 5 11 12 7 6 -4 8 -3 4 4 -3 6 2 15 11 21 10 6 13 11 8 11 -6 0 -15 -4
-20 -9 -6 -6 -16 -3 -25 7 -13 14 -12 15 3 9 9 -3 19 -2 22 3 4 6 1 10 -5 10
-6 0 -8 5 -5 10 4 6 10 8 15 5 5 -3 11 -1 14 4 4 5 -5 8 -19 7 -13 -2 -22 1
-19 5 3 5 15 9 27 10 12 0 16 3 10 6 -20 7 -15 26 5 19 14 -5 14 -4 -2 9 -22
16 -29 42 -16 50 5 3 7 13 4 23 -5 16 -5 16 6 0 6 -10 16 -18 23 -18 7 0 6 4
-3 10 -8 5 -10 10 -5 10 6 0 1 7 -9 15 -11 8 -15 15 -10 15 6 0 11 6 12 13 4
38 13 81 17 85 3 3 0 11 -7 19 -6 8 -7 13 -2 12 29 -5 33 2 35 54 0 10 5 15
11 11 7 -4 8 -2 4 4 -4 6 -13 9 -20 6 -8 -3 -17 -1 -21 5 -4 7 0 8 11 4 12 -4
15 -3 10 5 -4 7 -2 10 7 6 8 -3 19 2 26 10 10 12 9 14 -8 9 -22 -6 -29 11 -9
23 7 4 8 3 4 -4 -5 -8 -1 -10 10 -5 11 4 13 8 6 11 -7 2 -10 7 -8 11 3 4 -1 8
-9 8 -8 0 -15 -5 -15 -10 0 -6 -3 -7 -6 -4 -11 11 16 36 32 30 8 -3 14 -1 14
5 0 6 -6 12 -12 15 -10 3 -10 9 0 26 17 29 15 36 -5 20 -17 -13 -17 -12 -2 6
9 11 15 28 14 38 -2 9 1 15 5 12 5 -3 7 -14 5 -24 -2 -10 1 -24 6 -32 6 -10 8
-7 5 11 -2 14 2 31 8 39 9 12 8 13 -3 6 -11 -6 -13 -4 -8 8 3 9 3 16 -1 14 -8
-2 -12 7 -12 26 0 8 3 7 10 -3 8 -13 11 -13 22 -1 7 8 8 11 2 8 -7 -4 -14 3
-17 19 -3 19 -1 24 10 20 8 -3 11 -2 8 3 -3 6 3 14 12 20 10 6 13 11 8 11 -6
0 -15 -4 -21 -10 -6 -6 -10 3 -11 26 0 23 2 32 7 23 5 -7 6 -17 4 -21 -3 -4 0
-8 6 -8 7 0 9 7 6 16 -8 21 2 56 14 49 5 -3 12 0 16 6 4 7 3 9 -4 5 -18 -11
-23 11 -6 28 10 11 11 16 3 16 -7 0 -5 8 7 21 19 22 19 22 -3 10 -31 -16 -41
-14 -16 4 18 13 20 20 13 46 -5 18 -7 36 -4 41 3 4 7 20 10 34 3 18 1 23 -7
18 -8 -4 -9 -3 -5 5 4 6 11 9 16 6 4 -3 13 2 20 10 11 13 10 14 -2 10 -9 -4
-15 0 -15 11 0 9 8 19 18 21 16 5 17 7 3 21 -13 12 -13 17 -2 24 10 8 10 11 1
15 -22 8 -14 21 12 19 l24 -3 -21 30 -21 29 21 -11 c26 -14 43 -14 19 0 -9 6
-15 15 -12 20 4 5 12 6 18 3 9 -5 9 -3 0 6 -8 8 -17 10 -26 4 -7 -5 -4 -1 6 9
11 9 14 17 8 17 -9 0 -9 37 0 48 2 3 6 19 8 33 0 5 6 7 12 3 8 -4 7 -9 -2 -15
-10 -6 -8 -8 8 -7 19 2 20 4 6 25 -8 13 -18 21 -22 18 -4 -2 -8 2 -8 9 0 7 6
13 13 13 7 0 11 -4 8 -9 -3 -4 2 -5 10 -2 16 6 23 25 9 23 -20 -3 -29 3 -30
21 -1 11 2 18 8 15 10 -7 12 8 2 19 -13 13 -13 44 1 49 7 3 13 -1 13 -9 0 -7
-3 -11 -7 -9 -4 2 -7 -2 -7 -10 0 -8 4 -15 9 -15 12 0 14 27 4 88 -4 26 -2 32
9 28 8 -3 17 0 21 6 4 6 3 8 -3 5 -6 -4 -16 0 -22 7 -10 12 -9 13 7 9 11 -2
23 0 26 6 4 6 1 9 -7 5 -24 -9 -29 13 -8 33 13 13 16 24 10 38 -4 11 -8 14 -8
6 -1 -8 -4 -12 -7 -9 -3 4 2 17 10 30 9 14 13 28 9 31 -3 4 -2 7 4 7 18 0 23
-13 10 -28 -8 -11 -9 -14 0 -9 7 4 23 -4 37 -18 15 -14 30 -24 35 -21 5 3 7
-12 6 -34 -2 -27 3 -46 14 -57 15 -16 15 -16 -1 -10 -19 7 -25 -8 -8 -18 6 -4
7 -11 4 -17 -4 -6 0 -14 7 -19 8 -5 9 -9 3 -9 -12 0 -13 -78 -1 -97 5 -8 4
-13 -2 -13 -6 0 -11 -5 -11 -11 0 -8 5 -8 15 1 8 7 12 16 9 21 -3 5 0 9 6 9 7
0 10 -7 7 -15 -4 -8 -2 -17 2 -20 5 -3 7 -14 4 -24 -3 -10 3 -32 14 -47 10
-16 13 -25 7 -21 -7 4 -15 0 -18 -9 -5 -12 -2 -15 9 -10 9 3 13 2 10 -3 -3 -5
0 -13 6 -17 8 -4 4 -11 -12 -20 -13 -7 -18 -13 -11 -14 7 0 22 5 32 10 13 7
21 7 25 0 4 -6 3 -10 -2 -9 -20 3 -34 -2 -28 -11 4 -6 12 -7 18 -3 7 4 6 0 -2
-10 -7 -9 -10 -17 -5 -17 5 0 -2 -10 -16 -21 -14 -11 -20 -18 -13 -15 6 3 18
3 27 0 13 -5 14 -9 4 -21 -10 -12 -8 -17 7 -26 19 -10 19 -10 0 -18 -16 -6
-17 -8 -3 -8 9 -1 20 4 23 9 9 15 22 12 29 -6 6 -15 4 -15 -11 -3 -15 12 -16
12 -10 -3 4 -13 2 -15 -9 -11 -14 5 -14 3 -3 -15 7 -11 16 -19 19 -17 3 2 12
-5 18 -16 12 -18 11 -19 -7 -10 -14 8 -20 7 -25 -4 -3 -8 -1 -17 5 -20 5 -4 6
-11 3 -17 -4 -7 -2 -8 4 -4 19 11 14 -5 -5 -21 -11 -9 -6 -8 11 2 26 16 29 16
45 0 13 -13 13 -16 2 -13 -8 2 -17 -5 -19 -14 -2 -14 1 -16 15 -12 15 5 15 4
3 -4 -10 -8 -18 -8 -27 0 -9 7 -13 7 -13 0 0 -13 26 -23 48 -16 9 2 7 -1 -5
-7 -20 -11 -21 -13 -7 -24 19 -13 10 -60 -8 -49 -7 4 -8 2 -4 -5 6 -9 11 -9
22 0 11 9 14 8 14 -2 0 -11 3 -11 11 1 9 13 10 13 6 0 -2 -8 -9 -16 -15 -16
-26 -3 -26 -5 -2 -20 14 -8 18 -13 9 -11 -9 3 -16 -1 -16 -9 0 -7 4 -11 9 -8
14 9 9 -9 -9 -30 -14 -16 -14 -18 -2 -8 9 6 20 8 24 4 5 -4 5 -2 2 4 -3 6 0
11 7 11 8 0 12 -6 9 -14 -3 -7 -11 -13 -18 -13 -8 0 -16 -4 -19 -8 -2 -4 6 -8
20 -8 13 0 24 4 24 8 0 4 5 8 11 8 6 0 7 -5 2 -12 -14 -23 -14 -50 -1 -42 10
6 10 5 1 -7 -9 -12 -10 -18 -1 -27 8 -8 8 -16 -3 -28 -13 -16 -12 -17 6 -11
19 7 19 6 2 -7 -16 -12 -16 -14 -2 -20 9 -3 13 -2 10 4 -10 17 4 11 25 -10 11
-11 16 -20 12 -20 -4 0 -13 5 -20 12 -9 9 -12 9 -12 -1 0 -7 -4 -10 -9 -7 -5
4 -7 -4 -3 -16 5 -20 6 -21 12 -3 4 12 9 15 14 7 3 -6 14 -9 24 -6 14 5 14 4
2 -4 -8 -6 -17 -9 -21 -7 -3 3 -6 -7 -6 -20 0 -14 4 -25 9 -25 5 0 7 4 4 9 -3
5 0 14 7 19 10 8 13 6 14 -7 1 -10 -8 -23 -20 -29 -21 -11 -20 -11 6 -7 15 2
25 0 22 -5 -3 -4 1 -11 7 -13 10 -4 10 -6 1 -6 -7 -1 -13 -6 -13 -12 0 -5 4
-8 9 -5 10 7 9 -20 -2 -30 -12 -12 -8 -24 8 -24 8 0 15 -4 15 -10 0 -5 0 -12
0 -15 0 -3 -3 -4 -7 -2 -5 1 -7 5 -6 10 2 4 -1 7 -6 7 -6 0 -9 -9 -8 -20 1
-10 3 -17 6 -15 2 3 13 -3 23 -12 18 -16 18 -16 12 3 -7 16 -6 17 8 6 14 -11
20 -11 37 0 12 7 21 19 21 27 0 11 -4 11 -18 -2 -21 -20 -32 -22 -32 -6 0 5 4
8 9 5 4 -3 15 2 24 12 14 15 17 22 17 37 0 3 9 1 19 -5 17 -9 19 -7 15 14 -3
16 2 26 19 35 22 11 22 11 -2 5 -20 -5 -23 -3 -18 11 4 9 7 19 7 21 0 3 5 2
12 -2 6 -4 8 -3 4 4 -3 5 0 12 6 15 10 3 8 10 -6 26 -11 11 -16 21 -12 21 4 0
2 9 -4 19 -7 15 -7 19 5 17 8 -1 18 -6 22 -11 4 -4 3 -5 -4 -1 -8 4 -11 -1
-10 -14 1 -20 2 -20 14 -4 9 12 9 22 2 36 -9 16 -7 18 16 14 21 -4 24 -2 16 8
-7 9 -7 16 2 26 9 10 9 11 0 6 -17 -9 -17 4 0 18 7 6 10 10 8 9 -2 -2 -11 3
-19 10 -11 8 -14 8 -9 0 4 -6 4 -18 1 -27 -5 -13 -10 -14 -20 -5 -20 17 4 50
33 44 15 -2 21 0 17 7 -5 8 -1 9 12 4 10 -4 15 -3 10 1 -4 4 -17 8 -29 8 -28
0 -33 22 -6 30 21 7 21 9 6 20 -19 14 -22 26 -6 22 6 -1 14 4 16 11 3 8 -1 10
-14 5 -10 -4 -4 6 15 25 18 18 38 32 43 32 6 0 9 7 5 15 -3 8 2 19 12 24 9 6
12 11 7 11 -6 0 -16 -5 -23 -12 -16 -16 -16 4 1 21 10 11 9 13 -3 9 -17 -6
-26 27 -10 37 5 3 6 13 3 22 -5 12 -2 15 10 10 40 -16 52 -19 39 -9 -15 10
-15 21 0 39 12 15 2 33 -20 34 -11 0 -12 2 -4 6 6 2 10 9 6 14 -10 17 5 9 27
-13 l21 -23 -12 24 c-7 14 -8 26 -3 30 5 3 10 26 12 51 l2 44 -23 -19 c-13
-12 -17 -13 -10 -4 6 9 9 18 6 22 -3 3 5 4 18 3 13 -2 30 4 37 12 12 12 11 13
-9 7 -14 -5 -20 -3 -16 3 3 6 3 12 -1 15 -5 2 -2 2 5 1 6 -2 12 4 12 12 0 8
-4 13 -9 9 -17 -10 -21 12 -6 25 8 7 15 11 16 9 0 -2 2 -12 4 -23 2 -10 9 -24
16 -30 9 -8 9 -6 0 12 -11 21 -8 26 14 23 6 -1 -1 8 -14 19 -12 11 -28 17 -35
13 -15 -9 16 30 32 40 11 7 11 11 0 25 -11 13 -11 14 1 8 9 -6 12 -5 9 5 -3 8
-11 13 -18 11 -11 -3 -11 0 0 12 13 17 25 22 16 7 -3 -5 1 -12 10 -15 8 -3 12
-2 9 3 -3 5 4 12 15 16 20 6 28 25 11 25 -10 0 -9 14 4 42 4 10 12 15 18 11 5
-3 7 -1 4 5 -9 14 -40 9 -45 -8 -3 -9 0 -10 9 -4 12 7 12 5 0 -9 -7 -9 -10
-17 -5 -17 5 0 2 -5 -6 -10 -10 -6 -11 -10 -2 -10 6 0 12 -4 12 -10 0 -17 -14
-11 -28 11 -8 12 -9 18 -3 14 11 -6 13 1 14 41 0 11 6 21 13 22 8 1 20 3 28 4
8 1 11 9 8 21 -4 17 -6 17 -14 3 -5 -9 -14 -16 -21 -16 -7 0 -6 4 3 10 13 9
13 11 0 20 -11 8 -8 9 13 6 25 -4 27 -2 22 17 -6 21 -6 22 9 3 9 -11 16 -15
16 -10 0 6 -5 15 -10 20 -13 13 -2 46 13 37 6 -4 7 -1 2 7 -4 7 -2 16 6 21 7
4 10 11 7 15 -8 8 -39 -21 -33 -30 3 -3 2 -4 -2 -1 -4 3 -7 14 -8 24 -1 13 3
17 14 14 13 -5 14 -3 4 7 -8 9 -9 19 -2 32 5 10 7 18 4 18 -3 0 0 10 7 23 7
12 11 25 10 30 -1 4 3 7 9 7 8 0 7 5 -1 15 -7 9 -10 18 -6 22 3 3 6 1 6 -6 0
-7 5 -9 10 -6 7 5 8 11 1 18 -10 13 8 47 25 47 5 0 17 9 27 20 9 11 12 20 6
20 -8 0 -8 4 0 14 8 10 9 16 1 21 -5 3 -11 4 -11 1 -1 -6 -5 -33 -8 -58 -1
-10 -3 -10 -10 1 -6 9 -11 10 -15 2 -4 -6 -12 -11 -17 -11 -6 0 3 12 18 26 22
21 24 25 8 20 -20 -6 -20 -6 -1 9 20 15 31 45 16 45 -5 0 -7 8 -6 18 4 23 32
27 40 5 6 -14 5 -16 -5 -5 -18 17 -30 15 -23 -3 4 -8 11 -12 18 -8 6 4 4 -2
-4 -13 -8 -10 -10 -16 -6 -12 5 4 15 0 23 -10 13 -15 13 -15 3 5 -8 18 -7 24
7 32 11 6 13 11 5 11 -7 0 -11 4 -7 9 3 5 -3 12 -14 16 -13 4 -18 13 -16 27 5
24 18 40 15 18 -4 -25 0 -44 6 -37 4 3 16 2 28 -4 20 -10 21 -10 1 6 -10 8
-20 26 -22 40 -3 20 0 24 14 19 17 -5 17 -5 0 6 -9 6 -23 8 -30 5 -6 -4 -4 0
7 9 10 8 15 20 10 27 -4 7 -3 10 4 5 6 -3 18 1 26 10 15 15 21 11 16 -11 -1
-5 2 -6 6 -2 11 11 14 38 3 31 -5 -3 -9 0 -9 5 0 6 -4 11 -10 11 -5 0 -9 -5
-7 -11 1 -6 -4 -14 -10 -16 -15 -6 -17 13 -3 22 6 3 10 15 10 26 0 10 4 19 10
19 5 0 7 -6 4 -14 -3 -7 1 -16 9 -19 10 -4 14 0 12 11 -1 9 2 22 7 29 6 8 2
15 -14 23 -21 10 -21 10 -5 -3 11 -9 14 -18 8 -21 -11 -7 -20 5 -26 34 -3 16
-1 18 13 11 14 -7 18 -5 18 9 0 10 -6 16 -12 13 -7 -2 -15 0 -19 6 -3 6 -1 11
4 11 6 0 11 16 11 35 0 28 -4 35 -19 35 -20 0 -31 -18 -31 -50 0 -10 -5 -20
-11 -22 -5 -2 -11 -22 -12 -45 -1 -22 -4 -40 -7 -38 -4 2 -12 -5 -19 -17 -10
-16 -10 -19 1 -12 7 4 5 -1 -4 -12 -13 -14 -14 -23 -6 -38 8 -14 7 -17 -1 -12
-7 5 -11 -4 -11 -26 0 -18 -7 -41 -15 -51 -7 -11 -12 -28 -10 -38 2 -11 0 -17
-5 -14 -5 3 -9 -3 -9 -12 -1 -44 -8 -72 -23 -95 -12 -19 -14 -28 -5 -37 8 -8
8 -11 -2 -11 -7 0 -9 -4 -6 -10 3 -5 2 -10 -3 -10 -6 0 -13 -7 -16 -16 -6 -15
-4 -15 11 -3 17 13 17 12 2 -6 -9 -11 -15 -28 -14 -38 3 -13 -1 -17 -12 -13
-13 5 -14 4 -3 -9 8 -10 9 -15 2 -15 -6 0 -9 -7 -6 -15 4 -9 0 -15 -7 -15 -11
0 -11 -3 1 -10 10 -6 11 -10 3 -10 -7 0 -12 -3 -12 -7 4 -20 -15 -73 -25 -73
-7 0 -6 -3 2 -8 10 -7 9 -15 -4 -41 -9 -17 -13 -38 -10 -46 3 -8 1 -15 -4 -15
-6 0 -10 -9 -10 -20 0 -11 -4 -20 -9 -20 -5 0 -11 -9 -14 -20 -3 -11 -2 -18 2
-16 4 3 7 -4 7 -14 0 -10 -4 -16 -8 -14 -4 3 -8 -9 -8 -25 0 -23 -5 -31 -17
-31 -16 0 -16 -2 -3 -11 11 -8 12 -12 2 -16 -6 -2 -10 -9 -6 -14 3 -5 -1 -9
-8 -9 -10 0 -10 -2 -1 -8 10 -6 10 -13 0 -32 -15 -28 -17 -35 -17 -51 0 -5 -4
-8 -9 -4 -5 3 -13 0 -17 -6 -4 -7 -3 -9 4 -5 6 3 13 2 17 -4 3 -5 3 -10 -2
-10 -4 0 -9 -16 -10 -36 -1 -20 -7 -42 -14 -50 -6 -8 -8 -14 -4 -14 4 0 2 -6
-4 -13 -6 -8 -8 -17 -4 -20 3 -4 0 -7 -8 -7 -11 0 -11 -2 1 -10 12 -7 12 -10
1 -10 -7 0 -11 -6 -8 -14 3 -8 1 -17 -6 -20 -8 -3 -8 -5 1 -5 11 -1 10 -4 -1
-16 -9 -8 -18 -34 -22 -57 -4 -24 -11 -47 -15 -53 -5 -5 -11 -30 -15 -55 -4
-25 -11 -48 -17 -51 -6 -4 -8 -11 -4 -17 9 -15 -4 -43 -18 -35 -8 4 -8 2 1 -7
15 -16 6 -40 -16 -40 -13 0 -14 -2 -2 -9 12 -8 12 -14 -2 -42 -8 -18 -13 -37
-11 -41 3 -4 -1 -8 -8 -8 -10 0 -9 -3 2 -11 13 -9 13 -10 0 -6 -8 2 -14 14
-14 26 1 15 -3 20 -12 17 -8 -3 -14 -1 -14 4 0 6 8 10 18 10 9 0 23 10 31 23
13 19 12 21 -1 10 -8 -7 -19 -9 -23 -5 -5 4 -5 1 -1 -5 4 -7 2 -13 -4 -13 -7
0 -9 7 -6 16 3 9 6 18 6 20 0 3 4 2 10 -1 6 -3 10 -1 10 4 0 15 -27 14 -32 -1
-3 -7 -7 -5 -11 6 -4 10 -3 15 3 11 6 -3 10 -1 10 5 0 6 5 8 12 4 7 -4 8 -3 4
4 -4 6 -14 8 -24 5 -14 -5 -14 -3 3 17 l20 23 -23 -12 c-23 -12 -23 -12 -7 13
16 24 13 52 -5 41 -4 -3 -10 2 -14 10 -3 8 -1 17 4 20 13 8 13 25 -1 25 -5 0
-7 -5 -3 -12 4 -7 3 -8 -4 -4 -14 8 -38 51 -25 43 4 -2 17 -1 28 4 19 7 19 8
-1 8 -12 1 -28 8 -35 18 -13 15 -12 15 7 5 16 -9 21 -8 21 3 0 8 -4 12 -9 9
-4 -3 -8 -1 -8 5 0 5 5 13 10 16 6 4 8 11 4 16 -3 5 -10 7 -15 3 -5 -3 -7 -10
-4 -15 4 -5 2 -9 -4 -9 -6 0 -8 12 -4 30 5 25 3 29 -11 24 -9 -3 -16 -1 -16 6
0 6 4 8 10 5 6 -3 10 -1 10 5 0 6 5 8 13 4 7 -5 7 -1 -3 12 -22 29 -24 30 -17
11 4 -9 2 -17 -3 -17 -6 0 -10 8 -10 18 0 10 -6 24 -12 31 -10 11 -10 13 0 7
8 -5 12 1 11 21 0 25 -1 26 -9 8 -8 -18 -9 -18 -9 -2 -1 11 -6 15 -13 11 -7
-4 -8 -3 -4 4 4 7 14 12 22 12 8 0 14 4 14 9 0 15 -29 33 -41 25 -8 -4 -9 -3
-5 4 4 6 0 26 -9 43 -11 20 -12 29 -4 23 9 -5 11 -2 6 9 -3 10 -2 17 2 17 5 0
12 -6 14 -12 4 -10 6 -10 6 -1 1 15 -34 35 -43 25 -4 -3 -4 1 -1 10 4 9 1 26
-5 38 -7 14 -8 20 -1 16 10 -7 8 60 -3 71 -3 3 -1 14 5 24 7 15 6 17 -5 13 -8
-3 -13 -14 -10 -25 2 -10 6 -28 8 -39 3 -11 1 -20 -4 -20 -5 0 -9 8 -9 18 -1
38 -5 52 -13 52 -4 0 -8 5 -8 11 0 5 5 7 11 3 7 -4 10 -1 7 7 -3 8 -11 13 -17
11 -7 -1 -10 2 -6 8 4 6 1 19 -6 28 -11 14 -11 15 1 5 19 -17 27 -16 27 2 0 8
-2 13 -5 10 -3 -2 -12 0 -22 5 -14 7 -16 18 -13 52 5 40 4 42 -13 28 -12 -10
-15 -11 -10 -2 4 7 3 19 -4 27 -7 8 -7 15 -1 19 6 4 8 13 5 21 -4 8 -10 13
-14 10 -4 -3 -7 16 -6 41 1 25 -2 48 -6 50 -4 3 -8 -1 -8 -8 -1 -7 -7 4 -14
24 -14 40 -10 101 5 76 6 -9 9 -9 9 -1 0 20 -18 24 -29 6 -10 -17 -10 -17 -12
2 -1 11 -1 26 0 34 2 7 -1 11 -6 8 -5 -3 -9 8 -9 24 -1 16 2 29 7 29 5 0 9 8
8 18 0 10 -3 12 -6 5 -9 -24 -20 -13 -15 17 2 17 0 30 -6 30 -18 0 -21 29 -5
46 16 16 16 16 -5 10 -16 -5 -22 -3 -22 7 0 9 4 17 9 19 5 2 -2 12 -17 22 -14
11 -22 14 -18 8 4 -7 3 -12 -3 -12 -5 0 -12 6 -14 13 -3 7 -6 5 -6 -5 -1 -10
-6 -18 -12 -18 -5 0 -7 -4 -4 -10 3 -5 0 -7 -8 -5 -18 7 -53 -30 -37 -40 6 -4
14 -4 17 -1 4 3 1 6 -6 6 -7 0 -9 5 -6 10 4 6 11 7 17 4 7 -5 8 -2 3 6 -5 9
-4 11 3 6 8 -5 9 -13 2 -25 -5 -10 -6 -22 -2 -26 4 -5 1 -5 -6 -1 -8 5 -13 3
-11 -5 4 -35 -2 -89 -11 -89 -5 0 -7 8 -3 18 3 9 3 14 -2 10 -4 -4 -9 -20 -11
-35 -1 -16 -3 -29 -4 -30 -1 -2 -3 -8 -4 -13 0 -6 -8 -15 -16 -21 -12 -8 -11
-9 5 -7 16 3 20 -3 20 -34 1 -32 -1 -35 -17 -27 -22 12 -23 3 -3 -18 21 -20
11 -30 -12 -12 -16 12 -17 12 -6 -1 7 -9 8 -21 3 -29 -4 -8 -6 -21 -2 -29 4
-11 1 -13 -8 -7 -8 5 -11 4 -6 -3 4 -6 14 -8 23 -5 15 6 16 5 3 -9 -8 -9 -18
-14 -22 -11 -4 2 -5 -3 -2 -11 3 -8 13 -12 22 -9 13 4 14 2 4 -4 -7 -6 -14
-21 -16 -34 -1 -14 -5 -29 -8 -34 -3 -6 -5 -24 -3 -42 1 -18 -3 -31 -9 -30 -6
1 -10 -4 -8 -11 1 -8 -2 -11 -7 -8 -5 4 -12 2 -16 -4 -4 -6 -12 -7 -18 -4 -8
5 -8 3 1 -7 6 -7 12 -17 12 -22 0 -4 -6 -5 -12 -1 -8 4 -10 3 -5 -2 8 -9 12
-10 40 -13 8 -1 8 -4 -2 -10 -9 -6 -22 -6 -33 0 -26 14 -22 4 10 -26 15 -14
20 -25 12 -23 -10 2 -14 -7 -15 -31 0 -22 -6 -36 -15 -38 -9 -3 -11 -1 -5 4
15 12 14 50 -2 50 -9 0 -10 -4 -4 -10 7 -7 7 -16 0 -29 -11 -20 -3 -42 11 -33
10 6 8 -15 -4 -34 -5 -8 -4 -16 2 -20 7 -4 4 -11 -9 -20 -16 -9 -19 -9 -14 0
5 7 4 10 -2 6 -9 -6 -10 -24 -4 -60 0 -5 7 -5 14 -1 9 6 9 5 0 -8 -7 -8 -10
-18 -7 -21 3 -3 3 -11 -1 -17 -5 -8 -13 -6 -26 6 -11 9 -22 14 -26 11 -3 -4
-1 -7 7 -7 10 0 10 -4 -1 -17 -13 -17 -13 -17 5 -3 18 14 18 13 12 -10 -6 -20
-5 -22 4 -10 9 12 10 10 5 -9 -6 -18 -4 -22 6 -15 11 6 12 5 3 -7 -6 -8 -10
-22 -9 -31 2 -9 -6 -24 -16 -34 -11 -10 -19 -12 -19 -6 0 7 -5 12 -11 12 -8 0
-8 -5 1 -15 9 -11 10 -18 1 -29 -9 -11 -8 -15 4 -20 9 -3 13 -2 10 4 -4 6 1
17 9 26 9 8 16 11 16 5 0 -5 -5 -13 -10 -16 -8 -5 -7 -11 0 -20 9 -11 8 -13
-7 -11 -13 3 -19 -2 -19 -14 0 -10 4 -17 7 -14 4 2 11 0 14 -6 4 -6 3 -10 -2
-9 -29 5 -53 -24 -31 -37 6 -4 8 -3 5 3 -4 6 0 14 8 17 14 5 14 2 1 -23 -9
-16 -13 -40 -11 -54 3 -16 0 -27 -10 -31 -21 -8 -19 -27 3 -20 15 5 15 4 -1
-6 -18 -11 -18 -13 -1 -32 14 -15 15 -19 4 -16 -10 2 -14 -4 -13 -20 2 -19 1
-21 -11 -10 -8 7 -11 18 -8 23 9 15 10 55 2 60 -4 3 -6 -9 -5 -25 1 -17 -1
-33 -6 -35 -4 -3 -6 -12 -2 -20 3 -8 1 -15 -4 -15 -5 0 -10 -7 -10 -15 0 -8 4
-12 8 -10 3 3 9 -3 11 -13 5 -19 -26 -54 -38 -44 -5 4 -2 -1 5 -10 14 -19 26
-25 16 -8 -3 6 -1 10 5 10 6 0 8 5 4 12 -4 7 -3 8 4 4 8 -5 9 -13 3 -24 -4 -9
-7 -23 -5 -30 1 -7 0 -8 -3 -2 -10 20 -20 9 -15 -16 3 -18 1 -25 -6 -20 -6 4
-8 -2 -4 -16 3 -12 7 -17 10 -10 2 7 8 10 13 6 5 -3 2 -12 -6 -20 -18 -18 -20
-38 -3 -28 7 5 3 -4 -9 -19 -17 -22 -20 -34 -13 -57 6 -22 5 -28 -5 -24 -7 3
-11 18 -10 34 2 21 -1 27 -12 23 -11 -4 -12 -8 -3 -13 8 -5 9 -10 2 -14 -6 -3
-9 -14 -7 -24 2 -9 4 -22 4 -29 1 -7 8 -10 19 -6 9 3 2 -6 -17 -21 -19 -14
-29 -26 -22 -26 8 0 11 -6 7 -15 -3 -8 -2 -15 3 -15 15 0 21 13 10 26 -8 9 -4
15 13 24 22 11 22 10 4 -4 -18 -15 -15 -20 9 -17 6 1 -2 -10 -17 -23 -15 -13
-24 -27 -21 -30 4 -3 -1 -12 -11 -19 -12 -9 -16 -21 -12 -40 2 -15 1 -29 -4
-32 -5 -3 -6 -13 -3 -22 4 -9 -1 -22 -13 -31 -17 -13 -17 -14 -1 -8 15 5 17 2
12 -13 -4 -13 0 -24 12 -31 17 -11 17 -11 0 -6 -15 5 -17 1 -13 -24 3 -25 0
-33 -22 -45 l-27 -15 28 4 c16 3 25 1 22 -5 -4 -5 -11 -6 -17 -3 -7 5 -9 1 -5
-9 3 -9 1 -19 -5 -23 -6 -4 -8 -3 -4 4 3 6 3 13 -1 15 -5 3 -9 -8 -10 -25 0
-21 2 -27 10 -19 6 6 16 11 22 11 5 0 2 -5 -9 -11 -15 -9 -16 -13 -5 -20 11
-7 11 -9 1 -9 -7 0 -10 -5 -6 -12 4 -7 3 -8 -4 -4 -16 10 -15 -7 0 -23 10 -11
10 -13 1 -7 -17 9 -17 -6 -1 -23 9 -9 9 -12 1 -7 -6 3 -13 1 -15 -6 -3 -7 -9
-8 -18 -3 -11 7 -10 10 6 16 16 6 16 8 2 8 -21 1 -32 -15 -17 -25 8 -4 4 -12
-12 -21 -13 -8 -16 -12 -6 -9 11 4 20 -1 24 -12 4 -9 11 -20 17 -24 7 -5 5 -8
-6 -8 -9 0 -19 6 -22 13 -3 6 -4 3 -3 -8 2 -11 8 -19 15 -18 8 2 9 -4 2 -21
-5 -13 -6 -26 -3 -29 3 -3 -6 -3 -19 -1 -22 5 -22 5 -3 -8 20 -13 35 -45 15
-33 -14 9 -13 -8 2 -25 7 -8 1 -5 -13 8 -19 17 -26 19 -26 8 0 -8 3 -13 7 -11
3 2 11 -4 17 -14 9 -14 8 -18 -3 -18 -7 0 -11 4 -8 9 3 4 0 8 -6 8 -6 0 -8
-11 -6 -25 3 -13 0 -28 -6 -31 -7 -5 -4 -12 7 -21 11 -7 13 -13 7 -13 -10 0
-10 -5 -2 -20 8 -15 8 -20 -2 -18 -7 2 -13 -8 -13 -25 0 -15 -6 -31 -13 -36
-8 -5 -14 -12 -15 -17 -1 -5 -6 -8 -10 -6 -4 1 -3 -7 3 -17 7 -13 7 -22 0 -26
-6 -4 -8 -10 -5 -15 3 -5 -3 -13 -12 -19 -10 -6 -13 -11 -7 -11 5 0 15 5 22
12 8 8 12 8 12 1 0 -6 -7 -16 -15 -23 -8 -7 -14 -20 -13 -29 2 -9 -3 -15 -10
-13 -9 2 -11 -2 -6 -10 12 -19 15 -50 5 -43 -5 3 -13 0 -17 -6 -4 -7 -3 -9 3
-6 12 8 21 -19 15 -44 -2 -11 -10 -15 -25 -13 -21 4 -21 4 -2 -5 15 -6 23 -5
33 7 6 9 12 11 12 5 0 -7 -5 -15 -11 -19 -6 -3 -9 -17 -6 -30 2 -14 0 -27 -5
-30 -4 -3 -5 -10 -2 -16 4 -5 -4 -5 -17 2 -20 10 -22 10 -12 -1 15 -15 17 -33
3 -24 -6 3 -7 -1 -4 -9 3 -9 11 -13 18 -9 6 3 5 0 -2 -8 -11 -12 -14 -12 -21
0 -6 9 -8 2 -7 -20 2 -19 -2 -40 -7 -46 -5 -7 -6 -13 -2 -13 4 0 1 -7 -6 -17
-13 -15 -12 -15 9 -4 13 7 26 10 30 7 3 -3 0 -6 -7 -6 -7 0 -9 -5 -5 -12 4 -6
3 -8 -4 -4 -6 3 -13 2 -17 -4 -3 -5 -1 -10 5 -10 6 0 8 -5 5 -10 -4 -6 -10 -8
-15 -5 -4 3 -14 -3 -21 -13 -13 -16 -13 -16 5 -2 18 14 19 13 13 -2 -3 -10 -1
-20 5 -24 6 -4 8 -3 5 3 -4 6 3 19 16 29 22 19 22 19 6 -1 -9 -11 -15 -28 -14
-38 3 -14 0 -15 -9 -8 -7 6 -16 8 -19 4 -4 -3 0 -11 9 -18 14 -10 14 -12 -2
-26 -10 -7 -15 -9 -11 -3 4 7 0 17 -8 24 -10 9 -15 9 -15 1 0 -6 5 -11 12 -11
6 0 8 -3 5 -7 -4 -3 -2 -12 3 -18 8 -9 4 -14 -15 -17 -15 -3 -25 -1 -25 7 0 7
-10 17 -22 23 -13 6 -17 11 -10 11 6 1 12 9 12 19 0 14 -2 15 -10 2 -8 -12
-10 -10 -10 8 0 15 4 21 12 16 7 -4 8 -3 4 5 -6 9 -11 9 -21 1 -9 -8 -14 -6
-19 5 -3 9 -10 14 -14 11 -5 -3 -9 1 -9 9 0 8 4 12 9 9 4 -3 8 -2 9 3 0 4 2
16 4 26 2 9 -1 15 -6 11 -5 -3 -7 -10 -4 -15 4 -5 1 -9 -6 -9 -6 0 -9 8 -6 19
3 11 -2 29 -10 40 -8 12 -11 21 -7 21 4 0 0 8 -9 18 -11 12 -14 22 -7 30 7 9
7 9 -2 2 -20 -17 -42 -11 -62 17 -16 21 -17 29 -7 45 9 15 9 22 -4 34 -8 9
-13 19 -10 24 3 5 -8 18 -25 30 -17 12 -30 31 -30 43 -1 23 -21 57 -35 57 -4
0 -1 -7 6 -16 19 -23 22 -49 3 -33 -7 6 -11 15 -9 20 3 4 -3 12 -12 18 -10 6
-12 11 -5 11 20 0 14 28 -8 35 -11 4 -18 10 -15 15 3 5 0 12 -6 16 -9 5 -7 11
6 20 16 12 15 13 -14 9 -17 -2 -29 0 -26 5 3 4 -2 13 -10 20 -8 7 -12 16 -9
21 3 5 -2 12 -10 15 -9 3 -16 13 -16 21 0 8 -4 11 -10 8 -6 -3 -10 2 -10 12 0
13 7 10 30 -16 17 -18 27 -37 24 -43 -5 -7 -2 -8 6 -3 9 6 11 4 5 -5 -6 -9 -4
-11 5 -5 8 5 11 4 6 -3 -3 -6 -1 -14 6 -18 7 -4 10 -4 6 1 -4 4 -3 14 4 22 6
8 7 13 2 11 -14 -4 -65 52 -58 64 3 4 0 7 -8 6 -7 -2 -12 3 -10 10 2 10 -2 10
-20 1 -13 -6 -20 -8 -16 -4 4 5 3 14 -3 22 -6 7 -8 13 -4 13 4 0 -3 9 -16 21
-13 11 -19 18 -14 15 6 -2 17 -1 25 5 12 7 12 9 -3 9 -20 0 -56 37 -57 57 0 6
-5 15 -12 19 -7 4 -8 3 -4 -4 4 -8 0 -12 -11 -12 -10 0 -29 -7 -41 -16 -18
-12 -20 -19 -12 -35 8 -13 7 -19 0 -19 -6 0 -9 -4 -6 -8 3 -5 -9 -25 -27 -44
-18 -20 -31 -42 -29 -49 2 -8 -2 -6 -8 3 -6 10 -17 15 -26 11 -15 -5 -15 -7
-1 -15 9 -5 14 -15 11 -23 -4 -10 -12 -12 -30 -4 -16 5 -23 5 -19 0 3 -6 -3
-14 -12 -20 -10 -6 -13 -11 -7 -11 5 0 15 5 22 12 9 9 15 9 25 -1 10 -10 8
-11 -7 -5 -15 6 -17 4 -11 -6 5 -8 4 -11 -3 -6 -6 3 -13 -3 -17 -14 -3 -11
-11 -20 -17 -20 -6 0 -5 7 3 17 8 9 9 14 2 10 -6 -4 -13 -4 -16 0 -2 5 -2 2
-1 -4 2 -7 -2 -13 -9 -13 -7 0 -8 -3 -2 -8 14 -10 17 -32 5 -32 -5 0 -7 -8 -4
-17 5 -15 4 -15 -4 -3 -6 8 -8 18 -6 22 3 4 0 16 -5 25 -9 16 -10 15 -8 -7 1
-14 -3 -24 -8 -23 -6 1 -12 -7 -12 -18 -1 -10 3 -19 8 -19 6 0 8 4 4 9 -3 5
-2 12 3 15 4 2 8 -6 8 -19 0 -13 -4 -21 -8 -19 -14 9 -37 -23 -33 -44 3 -16
-1 -19 -17 -14 -16 4 -19 2 -13 -8 5 -9 4 -11 -3 -6 -7 4 -12 1 -12 -6 0 -10
-2 -10 -9 1 -5 7 -11 9 -13 5 -3 -5 -3 -3 -2 4 2 6 -2 12 -8 12 -7 0 -7 4 1
14 9 11 9 16 0 22 -8 4 -9 3 -5 -4 9 -15 -14 -15 -34 -1 -13 9 -12 10 3 5 11
-3 16 -2 12 4 -3 6 -1 10 6 10 7 0 10 2 7 5 -3 3 -18 1 -34 -5 -27 -11 -27
-10 -11 8 9 10 14 22 10 25 -10 10 -33 8 -33 -3 0 -5 8 -7 18 -4 14 5 15 4 2
-5 -11 -8 -18 -6 -28 7 -7 9 -17 16 -22 15 -4 -1 -6 6 -3 17 3 11 9 17 14 14
5 -3 6 -10 3 -16 -5 -7 -2 -8 6 -3 9 6 11 4 5 -5 -6 -9 -4 -11 5 -5 10 6 4 16
-22 41 -20 18 -35 34 -35 36 1 2 -2 0 -7 -4 -15 -12 -28 -9 -20 4 5 7 2 9 -8
6 -8 -4 -21 -2 -29 3 -8 5 -9 9 -4 9 6 0 11 10 12 23 2 20 1 20 -11 5 -11 -15
-14 -15 -27 -3 -13 13 -15 12 -16 -7 -2 -18 0 -20 7 -8 5 8 10 10 10 4 0 -16
-10 -23 -26 -17 -8 3 -11 10 -7 16 3 6 1 7 -6 3 -9 -6 -9 -11 1 -24 10 -12 10
-14 1 -8 -8 4 -13 2 -13 -4 0 -7 -13 -9 -37 -5 -20 3 -35 4 -32 2 2 -1 13 -9
23 -17 12 -9 17 -10 12 -3 -5 9 -2 11 9 6 12 -4 13 -8 5 -13 -7 -4 -17 -14
-22 -21 -8 -11 -9 -10 -4 4 4 14 1 17 -19 14 -13 -1 -27 -6 -31 -10 -4 -3 2
-5 13 -3 11 3 20 -1 20 -8 0 -7 -10 -12 -21 -12 -12 1 -20 -4 -19 -11 2 -6 -8
-21 -22 -31 -13 -11 -22 -22 -19 -25 3 -3 -6 -4 -20 -3 -30 4 -34 -8 -8 -24
15 -10 15 -10 -4 -5 -24 6 -43 -12 -39 -38 3 -15 1 -16 -11 -6 -13 10 -12 15
7 35 12 13 19 27 16 31 -4 3 -7 1 -7 -6 0 -7 -5 -9 -10 -6 -6 4 -9 1 -8 -7 2
-7 -2 -12 -7 -11 -6 1 -12 -10 -13 -25 -1 -15 -7 -29 -12 -30 -6 -2 -8 -8 -4
-13 3 -5 0 -8 -8 -7 -7 2 -12 -3 -10 -10 1 -8 -2 -11 -8 -7 -6 3 -8 11 -5 16
4 5 1 9 -6 9 -7 0 -9 -8 -6 -21 4 -16 3 -18 -9 -8 -17 14 -19 -2 -1 -21 6 -8
1 -6 -13 5 -14 11 -22 16 -18 11 12 -14 -12 -48 -28 -42 -10 4 -12 2 -8 -6 5
-8 1 -9 -11 -4 -18 6 -18 6 1 -16 l19 -22 -30 18 -30 19 20 -23 20 -23 -21 11
c-16 9 -21 8 -21 -3 0 -8 4 -12 9 -9 4 3 5 -2 2 -11 -5 -12 -9 -13 -20 -4 -8
6 -14 8 -14 3 0 -5 -5 -2 -10 6 -8 12 -10 10 -8 -9 2 -16 -3 -25 -14 -26 -10
-2 -18 1 -18 7 0 6 7 8 14 5 10 -4 13 -1 9 8 -3 8 -9 12 -14 9 -5 -3 -9 5 -10
18 0 22 -1 22 -10 3 -7 -16 -8 -13 -6 15 2 31 -1 35 -20 33 -13 -2 -24 2 -24
7 -1 6 -2 14 -3 19 0 5 -11 21 -23 35 -13 14 -19 26 -15 26 5 0 9 7 9 15 0 8
-4 15 -9 15 -4 0 -8 5 -8 11 0 5 5 7 12 3 7 -4 8 -3 4 4 -4 6 -13 9 -21 5 -11
-4 -13 -1 -9 11 3 9 11 13 18 9 6 -3 7 -2 3 3 -5 5 -13 9 -19 9 -10 0 -17 19
-20 52 -1 7 -3 11 -6 8 -3 -2 -14 0 -26 6 -21 10 -21 10 -1 -6 11 -9 19 -21
18 -26 -2 -5 2 -9 9 -9 6 0 8 -3 5 -7 -4 -3 -2 -12 5 -20 8 -11 7 -12 -6 -7
-9 3 -16 12 -16 20 0 24 -2 29 -21 42 -22 16 -25 37 -4 29 8 -4 17 -1 21 5 4
7 3 8 -4 4 -11 -7 -17 6 -13 27 1 5 -3 6 -9 2 -6 -3 -7 -11 -4 -17 5 -7 2 -8
-5 -4 -7 5 -10 15 -7 23 3 8 1 11 -4 8 -6 -3 -10 -2 -10 4 0 6 -8 8 -17 4 -10
-3 -15 -3 -11 1 3 4 14 9 25 10 10 2 17 6 16 9 -2 4 -3 12 -3 18 0 6 -7 3 -16
-5 -21 -22 -27 -20 -14 3 7 14 7 22 -1 26 -6 4 -8 14 -5 22 4 9 -1 17 -14 20
-11 3 -20 10 -20 15 0 5 -4 7 -8 4 -4 -2 -14 -1 -21 3 -10 6 -9 10 4 14 10 5
14 3 9 -5 -4 -7 -3 -8 4 -4 9 5 7 14 -5 31 -10 14 -22 25 -27 25 -5 0 -1 -10
10 -22 10 -13 15 -20 10 -16 -5 4 -16 2 -25 -5 -14 -11 -14 -10 -2 6 7 9 9 17
5 17 -18 0 -36 41 -25 54 14 16 4 26 -17 18 -15 -5 -15 -4 -3 12 13 15 12 17
-13 12 -15 -3 -24 -1 -21 5 3 5 -5 21 -19 36 -21 22 -23 30 -14 47 11 20 10
20 -7 6 -17 -14 -18 -13 -12 3 20 50 20 53 4 32 -10 -12 -16 -15 -17 -7 0 7
-4 11 -9 8 -5 -3 -9 0 -8 7 1 35 -4 48 -15 41 -8 -5 -7 0 2 11 10 12 10 16 2
11 -14 -8 -45 11 -37 24 3 4 -2 13 -10 20 -14 11 -14 16 1 39 17 26 17 26 -3
8 -11 -9 -23 -14 -26 -10 -11 10 -8 45 3 38 5 -3 7 -13 4 -23 -5 -14 -4 -14 4
-2 12 15 -3 44 -18 35 -4 -3 -13 1 -19 9 -9 11 -6 13 14 11 14 -2 25 1 25 7 0
5 -8 7 -17 4 -31 -10 -45 6 -53 59 -1 6 -6 1 -11 -10 l-9 -20 3 20 c2 12 10
19 20 19 9 -1 14 3 11 8 -4 5 -15 8 -25 5 -21 -6 -35 8 -19 18 5 3 10 12 10
18 0 7 -4 6 -10 -3 -6 -9 -13 -11 -17 -5 -15 20 -43 17 -43 -5 0 -22 -10 -26
-27 -9 -13 13 -13 -7 0 -28 5 -8 3 -13 -3 -13 -6 0 -8 -5 -4 -12 4 -7 3 -8 -4
-4 -7 4 -19 3 -28 -2 -15 -8 -15 -10 0 -15 11 -5 15 -3 10 5 -4 7 -3 8 5 4 8
-6 9 -12 2 -20 -6 -7 -9 -15 -6 -18 5 -5 -14 -8 -50 -9 -11 0 -15 -3 -9 -7 6
-4 14 -16 17 -27 7 -20 7 -20 -8 -1 -14 19 -15 19 -16 -10 -1 -16 -1 -32 -1
-35 1 -9 -32 -7 -44 2 -7 5 -11 3 -11 -6 0 -8 4 -12 9 -9 4 3 8 0 8 -6 0 -6 5
-8 10 -5 16 10 11 -1 -7 -16 -9 -8 -14 -9 -10 -3 3 6 0 11 -7 11 -15 0 -15
-21 -1 -34 4 -4 6 -3 2 2 -3 6 3 11 14 11 19 0 19 -1 3 -13 -9 -7 -21 -10 -27
-6 -6 4 -8 -2 -5 -15 5 -19 3 -20 -13 -11 -11 5 -19 6 -18 2 3 -20 -2 -34 -11
-28 -5 3 -7 0 -4 -9 3 -9 12 -12 21 -9 11 4 14 2 9 -5 -4 -7 -18 -12 -32 -12
-15 0 -23 -4 -19 -10 4 -6 11 -8 16 -5 5 4 4 -5 -3 -19 -6 -14 -16 -26 -22
-26 -6 0 -5 5 2 12 15 15 16 28 2 28 -5 0 -9 -5 -7 -12 1 -7 -3 -12 -10 -13
-6 0 -15 -4 -20 -9 -4 -5 -3 -6 3 -3 7 4 14 -3 18 -16 8 -31 8 -32 -6 -32 -8
0 -12 -11 -10 -25 2 -20 0 -22 -8 -10 -9 14 -14 7 -11 -13 1 -5 -3 -6 -9 -2
-7 4 -2 18 12 38 12 18 15 26 7 20 -9 -7 -19 -10 -23 -6 -4 4 -4 -1 0 -11 5
-14 4 -17 -5 -12 -7 5 -10 2 -9 -6 2 -7 -5 -12 -14 -12 -10 1 -15 -3 -12 -8 3
-5 12 -7 19 -4 22 8 15 -53 -6 -65 -15 -7 -17 -6 -13 6 3 8 10 13 14 10 5 -3
8 3 7 13 0 10 -7 19 -14 19 -6 0 -10 -4 -8 -8 3 -4 2 -14 -1 -23 -5 -14 -9
-14 -22 -4 -12 10 -11 7 2 -14 10 -15 23 -25 29 -21 6 4 7 1 3 -6 -6 -9 -13
-8 -28 6 -15 13 -19 14 -16 3 2 -8 8 -18 13 -22 6 -5 3 -8 -6 -8 -11 0 -15 -8
-14 -25 4 -28 2 -29 -28 -14 -20 9 -19 8 3 -12 16 -15 19 -20 8 -16 -21 7 -23
-3 -6 -22 11 -11 9 -11 -9 -2 -14 7 -24 8 -28 1 -3 -5 -3 -10 1 -10 4 0 -1 -7
-12 -16 -10 -8 -14 -13 -8 -10 7 3 14 0 17 -7 6 -15 -29 -41 -43 -32 -5 3 -12
1 -15 -5 -4 -6 -1 -9 6 -8 6 2 14 -3 16 -10 3 -7 -1 -10 -10 -6 -15 5 -30 -10
-33 -34 -1 -6 2 -10 7 -6 5 3 7 9 4 14 -3 5 -1 11 5 15 15 10 12 -22 -5 -38
-8 -8 -11 -18 -7 -22 4 -5 2 -5 -5 -2 -6 4 -10 15 -9 25 2 9 -2 20 -8 24 -8 6
-7 8 1 8 7 0 10 7 6 17 -4 11 -3 14 5 9 7 -4 12 -2 12 3 0 6 -4 11 -10 11 -5
0 -10 14 -10 32 0 25 3 29 12 20 7 -7 17 -12 22 -12 6 0 1 7 -12 15 -21 15
-21 22 -21 178 1 105 5 167 13 176 8 12 8 13 -1 7 -18 -10 -18 55 0 73 10 11
10 13 -1 7 -7 -4 -12 -1 -12 8 0 9 6 16 13 16 8 0 7 4 -3 10 -13 8 -13 13 -2
31 8 11 9 18 3 14 -16 -9 -14 58 2 74 8 9 8 12 0 7 -9 -5 -12 37 -12 169 0
128 4 175 12 175 7 0 6 4 -3 10 -13 8 -13 13 -2 31 8 11 9 18 3 14 -16 -9 -14
58 2 74 7 9 8 11 0 7 -8 -4 -11 119 -12 489 -1 389 2 495 12 495 8 0 7 4 -3
10 -13 8 -13 13 -2 31 8 11 9 18 3 14 -16 -9 -14 58 1 74 9 9 9 12 1 7 -9 -5
-12 37 -12 169 0 128 4 175 12 175 7 0 6 4 -3 10 -13 8 -13 13 -2 31 8 11 9
18 3 14 -16 -9 -14 58 1 74 10 11 10 12 1 7 -10 -6 -13 96 -12 488 1 367 4
496 12 496 7 0 5 5 -3 10 -13 8 -13 13 -2 31 8 11 9 18 3 14 -16 -9 -14 58 2
74 7 9 8 12 0 7 -8 -4 -11 32 -12 139 0 113 2 144 12 139 8 -5 7 -2 -2 9 -7 9
-11 25 -8 36 2 10 1 25 -4 32 -5 8 -9 9 -9 3 0 -6 -7 -11 -15 -11 -8 0 -15 3
-15 7 0 7 -12 8 -47 2z m3882 -1282 c3 -5 1 -10 -4 -10 -6 0 -11 5 -11 10 0 6
2 10 4 10 3 0 8 -4 11 -10z m32 -115 c0 -8 -4 -12 -9 -9 -5 3 -6 10 -3 15 9
13 12 11 12 -6z m-130 -94 c1 -11 -4 -21 -11 -24 -12 -5 -15 10 -6 33 1 3 1
10 0 15 -1 6 2 7 6 2 4 -4 9 -16 11 -26z m72 -22 c-24 -15 -30 -10 -11 9 9 10
19 14 21 9 2 -5 -3 -13 -10 -18z m24 -16 c-7 -2 -13 -9 -13 -15 0 -6 7 -7 16
-4 9 4 13 2 8 -5 -4 -6 0 -16 7 -21 10 -7 9 -8 -6 -4 -20 6 -20 6 -1 -9 14
-11 16 -15 5 -15 -12 0 -12 -2 1 -10 8 -5 10 -10 3 -10 -6 0 -20 16 -32 35
-11 19 -25 35 -31 35 -5 0 -10 5 -10 11 0 5 4 8 8 5 4 -2 14 -1 22 5 8 5 20 8
25 8 6 0 4 -3 -2 -6z m-136 -132 c0 -11 -5 -18 -9 -15 -4 3 -5 11 -1 19 7 21
12 19 10 -4z m958 -81 c3 -5 1 -10 -4 -10 -6 0 -11 5 -11 10 0 6 2 10 4 10 3
0 8 -4 11 -10z m-18 -35 c0 -8 -4 -12 -9 -9 -5 3 -6 10 -3 15 9 13 12 11 12
-6z m-726 -78 c-10 -9 -11 -8 -5 6 3 10 9 15 12 12 3 -3 0 -11 -7 -18z m9 -21
c0 -2 -7 -7 -16 -10 -8 -3 -12 -2 -9 4 6 10 25 14 25 6z m-275 -46 c3 -5 2
-10 -4 -10 -5 0 -13 5 -16 10 -3 6 -2 10 4 10 5 0 13 -4 16 -10z m355 -242 c0
-11 -12 -10 -30 2 -12 7 -10 9 8 7 12 0 22 -5 22 -9z m-403 -31 c0 -8 -6 -14
-14 -14 -9 0 -10 4 -2 14 6 7 12 13 14 13 1 0 2 -6 2 -13z m397 -2 c-4 -8 -11
-12 -16 -9 -6 4 -5 10 3 15 19 12 19 11 13 -6z m-337 -27 c-3 -8 -6 -5 -6 6
-1 11 2 17 5 13 3 -3 4 -12 1 -19z m870 -15 c-2 -15 -9 -29 -17 -31 -8 -3 -10
1 -6 9 3 8 9 22 12 32 9 26 15 21 11 -10z m-403 -11 c3 -5 -1 -9 -9 -9 -8 0
-12 4 -9 9 3 4 7 8 9 8 2 0 6 -4 9 -8z m-104 -83 c0 -5 5 -7 10 -4 6 3 10 1
10 -4 0 -16 -16 -13 -30 4 -9 10 -9 15 -1 15 6 0 11 -5 11 -11z m480 -14 c-5
-6 -6 -15 -2 -20 4 -4 -3 -2 -15 6 -16 9 -19 17 -12 25 6 7 17 10 25 7 10 -4
11 -9 4 -18z m-860 -79 c-14 -14 -22 -2 -14 18 5 14 9 15 15 4 4 -7 4 -17 -1
-22z m804 -32 c3 -8 2 -12 -4 -9 -6 3 -10 10 -10 16 0 14 7 11 14 -7z m-814
-29 c-6 -7 -9 -18 -8 -25 2 -7 -4 -15 -12 -17 -9 -3 -11 -1 -5 4 6 4 10 17 9
28 -1 27 5 37 17 29 6 -4 6 -10 -1 -19z m832 -17 c-5 -5 -17 -6 -26 -2 -13 5
-14 9 -5 14 16 11 43 0 31 -12z m-39 -23 c-3 -9 -8 -14 -10 -11 -3 3 -2 9 2
15 9 16 15 13 8 -4z m-200 -106 c-8 -8 -13 -7 -18 2 -5 8 -4 10 3 5 7 -4 12
-2 12 5 0 7 3 9 7 6 4 -4 2 -12 -4 -18z m174 -116 c0 -9 -6 -9 -21 -1 -30 15
-30 16 -3 14 13 0 24 -6 24 -13z m-907 -47 c0 -5 -7 -1 -15 10 -8 10 -14 24
-14 29 0 6 6 1 14 -9 8 -11 15 -24 15 -30z m870 34 c0 -5 -5 -10 -11 -10 -5 0
-7 5 -4 10 3 6 8 10 11 10 2 0 4 -4 4 -10z m3 -87 c8 -7 -21 -43 -35 -43 -4 0
-8 5 -8 11 0 5 5 7 10 4 6 -3 10 3 10 14 0 21 11 27 23 14z m-52 -76 c-10 -9
-11 -8 -5 6 3 10 9 15 12 12 3 -3 0 -11 -7 -18z m25 -17 c0 -12 -4 -16 -9 -11
-5 5 -6 14 -3 20 10 15 12 14 12 -9z m-801 -29 c3 -5 2 -12 -3 -15 -5 -3 -9 1
-9 9 0 17 3 19 12 6z m755 -5 c0 -2 -8 -10 -17 -17 -16 -13 -17 -12 -4 4 13
16 21 21 21 13z m-903 -281 c-20 -19 -27 -19 -27 1 0 8 4 13 9 9 5 -3 13 0 16
6 4 5 9 8 12 5 3 -3 -2 -12 -10 -21z m-13 -53 c3 -5 -1 -9 -9 -9 -8 0 -12 4
-9 9 3 4 7 8 9 8 2 0 6 -4 9 -8z m21 -371 c3 -5 2 -12 -3 -15 -5 -3 -9 1 -9 9
0 17 3 19 12 6z m-2850 -11 c3 -6 -1 -7 -9 -4 -18 7 -21 14 -7 14 6 0 13 -4
16 -10z m2755 -10 c0 -5 -4 -10 -10 -10 -5 0 -10 5 -10 10 0 6 5 10 10 10 6 0
10 -4 10 -10z m-2440 -182 c0 -4 -4 -8 -9 -8 -6 0 -12 4 -15 8 -3 5 1 9 9 9 8
0 15 -4 15 -9z m1610 -31 c0 -7 -10 -13 -22 -14 -22 -2 -22 -1 -4 13 24 17 26
17 26 1z m885 -16 c0 -16 -3 -27 -7 -25 -6 4 -5 29 1 52 4 11 7 -3 6 -27z
m-2475 -21 c-9 -6 -8 -10 6 -19 11 -6 14 -11 8 -11 -14 0 -37 27 -40 46 -2 11
2 11 18 3 15 -8 17 -13 8 -19z m2380 20 c0 -5 -2 -10 -4 -10 -3 0 -8 5 -11 10
-3 6 -1 10 4 10 6 0 11 -4 11 -10z m78 -51 c-3 -8 -7 -3 -11 10 -4 17 -3 21 5
13 5 -5 8 -16 6 -23z m-2953 12 c3 -5 1 -12 -4 -15 -5 -3 -11 1 -15 9 -6 16 9
21 19 6z m675 -86 c-7 -8 -16 -12 -21 -9 -13 8 -1 24 18 24 13 0 13 -3 3 -15z
m15 -25 c3 -5 1 -10 -4 -10 -6 0 -11 5 -11 10 0 6 2 10 4 10 3 0 8 -4 11 -10z
m2165 -14 c0 -3 -4 -8 -10 -11 -5 -3 -10 -1 -10 4 0 6 5 11 10 11 6 0 10 -2
10 -4z m-26 -49 c-3 -9 -11 -17 -17 -17 -8 0 -8 3 0 11 6 6 9 19 6 28 -4 12
-3 13 6 5 6 -6 9 -18 5 -27z m-3058 -12 c1 -8 -2 -15 -6 -15 -5 0 -8 9 -7 20
1 21 10 18 13 -5z m1838 -17 c-5 -7 -12 -5 -21 7 -8 13 -13 14 -13 5 0 -7 -3
-11 -6 -7 -14 14 7 27 27 17 11 -6 16 -16 13 -22z m-980 -14 c5 -14 4 -15 -9
-4 -17 14 -19 20 -6 20 5 0 12 -7 15 -16z m881 -14 c-3 -5 -1 -10 5 -10 6 0 8
-5 5 -11 -4 -6 -13 -8 -21 -5 -7 3 -21 -5 -31 -18 -15 -19 -21 -21 -31 -10 -8
9 -9 14 -2 15 5 1 15 2 22 3 6 0 13 7 16 15 3 9 0 11 -8 6 -8 -5 -11 -4 -6 3
4 6 13 9 20 6 8 -3 17 -1 21 5 3 6 8 11 11 11 3 0 2 -4 -1 -10z m1305 -15 c-7
-9 -15 -13 -19 -10 -3 3 1 10 9 15 21 14 24 12 10 -5z m-572 -20 c-3 -3 -9 2
-12 12 -6 14 -5 15 5 6 7 -7 10 -15 7 -18z m679 19 c-3 -3 -12 -4 -19 -1 -8 3
-5 6 6 6 11 1 17 -2 13 -5z m-2240 -56 c-27 -18 -38 -6 -28 30 1 1 10 -3 21
-10 14 -9 16 -14 7 -20z m2125 14 c3 -11 0 -19 -7 -19 -10 0 -12 13 -6 35 3 7
9 0 13 -16z m-2997 -2 c3 -5 1 -10 -4 -10 -6 0 -11 5 -11 10 0 6 2 10 4 10 3
0 8 -4 11 -10z m3100 0 c3 -5 1 -10 -4 -10 -6 0 -11 5 -11 10 0 6 2 10 4 10 3
0 8 -4 11 -10z m-102 -36 c-7 -3 -9 -13 -6 -22 4 -14 3 -14 -5 -2 -12 16 -7
30 11 29 9 0 9 -2 0 -5z m-1989 -40 c3 -8 2 -12 -4 -9 -6 3 -10 10 -10 16 0
14 7 11 14 -7z m554 -3 c-7 -9 -13 -17 -14 -19 -1 -1 -7 4 -14 13 -11 13 -10
14 5 9 11 -5 16 -4 12 3 -3 5 0 10 8 10 12 0 12 -3 3 -16z m1058 -26 c10 -8
15 -15 10 -15 -4 0 0 -12 10 -27 13 -20 13 -25 2 -16 -8 7 -18 10 -22 6 -4 -4
-4 0 0 10 4 11 1 17 -7 17 -11 0 -11 3 1 10 13 8 13 10 -2 10 -9 0 -20 5 -23
10 -9 15 8 12 31 -5z m-748 -60 c-3 -3 -9 2 -12 12 -6 14 -5 15 5 6 7 -7 10
-15 7 -18z m-768 -33 c0 -13 -12 -22 -22 -16 -10 6 -1 24 13 24 5 0 9 -4 9 -8z
m185 -2 c-3 -5 -12 -10 -18 -10 -7 0 -6 4 3 10 19 12 23 12 15 0z m-1401 -18
c2 -4 1 -14 -3 -21 -6 -9 -10 -7 -14 8 -5 20 7 29 17 13z m1107 -19 c-12 -20
-14 -14 -5 12 4 9 9 14 11 11 3 -2 0 -13 -6 -23z m1579 12 c7 -8 10 -15 6 -15
-3 0 -8 0 -11 0 -3 0 -5 3 -4 6 0 4 -5 11 -13 15 -8 5 -9 9 -2 9 6 0 17 -7 24
-15z m378 -42 c-9 -10 -14 -23 -11 -29 2 -6 -4 -14 -13 -18 -13 -5 -14 -4 -6
7 7 8 9 17 5 21 -4 3 2 13 13 21 26 19 30 19 12 -2z m97 -3 c-3 -5 -13 -6 -21
-3 -12 4 -13 8 -3 14 15 9 32 2 24 -11z m-323 -8 c9 -9 9 -12 -2 -12 -9 0 -6
-7 8 -21 21 -19 22 -46 1 -33 -5 3 -7 9 -4 14 3 4 -2 13 -10 20 -7 6 -11 19
-8 27 4 10 2 14 -5 9 -6 -3 -13 -2 -16 3 -8 13 22 7 36 -7z m-1464 -77 c-2 -1
-14 -8 -28 -15 -22 -12 -24 -11 -13 2 7 8 10 17 7 21 -3 3 4 3 15 0 12 -3 20
-7 19 -8z m-74 -51 c3 -8 2 -12 -4 -9 -6 3 -10 10 -10 16 0 14 7 11 14 -7z
m1836 -4 c0 -5 -5 -10 -11 -10 -5 0 -7 5 -4 10 3 6 8 10 11 10 2 0 4 -4 4 -10z
m-339 -23 c-10 -9 -11 -8 -5 6 3 10 9 15 12 12 3 -3 0 -11 -7 -18z m323 -13
c3 -8 2 -12 -4 -9 -6 3 -10 10 -10 16 0 14 7 11 14 -7z m-303 -16 c1 -7 1 -16
0 -20 0 -5 3 -8 8 -8 5 0 11 -9 14 -20 3 -11 10 -20 17 -20 6 0 8 5 4 12 -5 7
-3 8 5 3 10 -5 10 -10 1 -19 -9 -8 -17 -4 -35 19 -13 16 -22 31 -20 34 3 2 -3
10 -13 17 -16 13 -16 13 1 14 9 0 18 -6 18 -12z m193 -70 c-3 -4 -11 -5 -19
-1 -21 7 -19 12 4 10 11 0 18 -5 15 -9z m-36 -23 c-3 -3 -9 2 -12 12 -6 14 -5
15 5 6 7 -7 10 -15 7 -18z m107 -125 c-3 -5 -12 -10 -18 -10 -7 0 -6 4 3 10
19 12 23 12 15 0z m0 -30 c3 -6 -1 -7 -9 -4 -18 7 -21 14 -7 14 6 0 13 -4 16
-10z"/>
<path d="M4590 4676 c0 -2 8 -10 18 -17 15 -13 16 -12 3 4 -13 16 -21 21 -21
13z"/>
<path d="M5597 4996 c-3 -8 0 -13 6 -12 15 2 22 19 9 24 -5 1 -12 -4 -15 -12z"/>
<path d="M5593 4935 c0 -8 4 -12 9 -9 4 3 8 9 8 15 0 5 -4 9 -8 9 -5 0 -9 -7
-9 -15z"/>
<path d="M4655 4881 c-3 -6 5 -15 17 -21 21 -10 21 -10 6 3 -10 8 -15 17 -11
20 3 4 4 7 0 7 -3 0 -8 -4 -12 -9z"/>
<path d="M4501 4840 c14 -31 19 -36 19 -24 0 6 -7 19 -16 30 -14 18 -14 18 -3
-6z"/>
<path d="M5439 4793 c-13 -16 -12 -17 4 -4 9 7 17 15 17 17 0 8 -8 3 -21 -13z"/>
<path d="M4686 4754 c-6 -14 11 -30 21 -20 4 3 0 6 -7 6 -9 0 -8 4 4 13 16 12
16 14 3 14 -9 0 -18 -6 -21 -13z"/>
<path d="M4704 4714 c-18 -14 -18 -15 4 -4 12 6 22 13 22 15 0 8 -5 6 -26 -11z"/>
<path d="M5515 4717 c-13 -10 -15 -16 -6 -21 9 -6 9 -11 0 -22 -6 -8 -8 -14
-4 -14 4 0 0 -12 -10 -26 -9 -14 -18 -33 -20 -42 -2 -9 -5 -23 -7 -31 -1 -7 3
-16 10 -18 7 -3 12 3 12 14 0 15 2 16 10 3 5 -8 10 -10 10 -4 0 6 -3 14 -7 18
-4 3 -7 15 -8 26 -1 16 3 19 19 15 12 -3 15 -2 9 1 -16 7 -17 34 -2 34 6 0 9
7 6 15 -4 8 -2 17 3 20 6 4 11 45 5 45 -1 0 -9 -6 -20 -13z m15 -17 c0 -5 -2
-10 -4 -10 -3 0 -8 5 -11 10 -3 6 -1 10 4 10 6 0 11 -4 11 -10z"/>
<path d="M4480 4670 c-9 -6 -10 -10 -3 -10 6 0 15 5 18 10 8 12 4 12 -15 0z"/>
<path d="M4715 4650 c-6 -9 11 -50 21 -50 2 0 0 9 -6 20 -6 11 -8 25 -5 30 3
6 4 10 1 10 -3 0 -8 -4 -11 -10z"/>
<path d="M4581 4603 c7 -10 15 -20 16 -22 2 -2 3 3 3 11 0 9 -7 19 -16 22 -15
6 -15 4 -3 -11z"/>
<path d="M4620 4573 c6 -13 15 -23 20 -23 15 0 21 18 9 26 -8 4 -9 3 -5 -4 11
-19 -5 -14 -21 6 -13 15 -13 15 -3 -5z"/>
<path d="M4555 4540 c-3 -6 1 -7 9 -4 18 7 21 14 7 14 -6 0 -13 -4 -16 -10z"/>
<path d="M4634 4518 c0 -10 1 -18 3 -18 1 0 7 8 12 18 7 13 6 19 -2 19 -7 0
-13 -9 -13 -19z"/>
<path d="M4754 4528 c-4 -6 0 -16 9 -23 9 -7 13 -16 9 -20 -4 -5 -1 -5 7 0 12
7 11 10 -3 21 -10 7 -15 17 -11 23 3 6 4 11 1 11 -3 0 -8 -5 -12 -12z"/>
<path d="M4641 4491 c-8 -5 -9 -11 -3 -15 5 -3 12 1 16 9 6 17 6 18 -13 6z"/>
<path d="M4445 4460 c3 -5 8 -10 11 -10 2 0 4 5 4 10 0 6 -5 10 -11 10 -5 0
-7 -4 -4 -10z"/>
<path d="M4546 4462 c-2 -4 0 -14 6 -22 8 -12 9 -12 4 2 -3 10 1 18 12 21 16
4 16 5 0 6 -9 0 -19 -3 -22 -7z"/>
<path d="M4765 4461 c-6 -11 13 -26 22 -17 4 3 0 6 -8 6 -11 0 -11 2 1 10 9 6
10 10 3 10 -6 0 -14 -4 -18 -9z"/>
<path d="M5470 4460 c0 -5 5 -10 11 -10 5 0 7 5 4 10 -3 6 -8 10 -11 10 -2 0
-4 -4 -4 -10z"/>
<path d="M4652 4420 c1 -22 3 -38 6 -35 9 8 9 75 0 75 -4 0 -7 -18 -6 -40z"/>
<path d="M4438 4438 c9 -9 9 -15 -1 -27 -11 -14 -10 -14 6 -2 13 10 15 17 6
27 -6 8 -14 14 -17 14 -3 0 -1 -5 6 -12z"/>
<path d="M5450 4400 c0 -5 5 -10 11 -10 5 0 7 5 4 10 -3 6 -8 10 -11 10 -2 0
-4 -4 -4 -10z"/>
<path d="M4799 4383 c-13 -16 -12 -17 4 -4 16 13 21 21 13 21 -2 0 -10 -8 -17
-17z"/>
<path d="M4435 4380 c3 -5 1 -10 -5 -10 -6 0 -8 -4 -5 -10 6 -9 -8 -14 -28
-11 -5 1 -6 -3 -2 -8 8 -14 33 -3 45 20 13 23 13 29 -1 29 -5 0 -7 -4 -4 -10z"/>
<path d="M4806 4365 c-16 -12 -17 -15 -4 -15 9 0 18 7 22 15 7 18 6 18 -18 0z"/>
<path d="M4536 4333 c-6 -14 -5 -15 5 -6 7 7 10 15 7 18 -3 3 -9 -2 -12 -12z"/>
<path d="M5430 4309 c0 -5 5 -7 10 -4 6 3 10 8 10 11 0 2 -4 4 -10 4 -5 0 -10
-5 -10 -11z"/>
<path d="M4820 4296 c0 -2 7 -7 16 -10 8 -3 12 -2 9 4 -6 10 -25 14 -25 6z"/>
<path d="M4683 4276 c-10 -11 -9 -16 5 -21 9 -3 13 -3 9 1 -4 4 -2 13 4 21 15
17 -2 16 -18 -1z"/>
<path d="M5413 4245 c-3 -9 -3 -18 -1 -21 3 -3 8 4 11 16 6 23 -1 27 -10 5z"/>
<path d="M4695 4229 c-6 -8 -4 -10 5 -4 10 6 12 4 6 -11 -6 -15 -5 -17 5 -6 9
9 10 15 2 23 -8 8 -13 7 -18 -2z"/>
<path d="M4390 4219 c0 -5 5 -7 10 -4 6 3 10 8 10 11 0 2 -4 4 -10 4 -5 0 -10
-5 -10 -11z"/>
<path d="M5385 4220 c-3 -5 -3 -10 1 -10 4 0 -3 -11 -16 -25 -13 -14 -18 -25
-12 -25 7 0 12 5 12 11 0 5 5 7 10 4 6 -4 7 -12 3 -18 -4 -7 0 -6 10 2 18 14
22 22 10 20 -22 -4 -25 3 -7 16 12 9 14 14 6 15 -7 0 -10 5 -7 10 3 6 4 10 1
10 -3 0 -8 -4 -11 -10z"/>
<path d="M4505 4209 c-3 -4 2 -6 10 -5 21 3 28 13 10 13 -9 0 -18 -4 -20 -8z"/>
<path d="M4508 4183 c7 -3 16 -2 19 1 4 3 -2 6 -13 5 -11 0 -14 -3 -6 -6z"/>
<path d="M4706 4158 c3 -5 10 -6 15 -3 13 9 11 12 -6 12 -8 0 -12 -4 -9 -9z"/>
<path d="M4866 4141 c-4 -5 -2 -12 3 -15 5 -4 12 -2 15 3 4 5 2 12 -3 15 -5 4
-12 2 -15 -3z"/>
<path d="M4367 4099 c-4 -15 -11 -20 -22 -15 -9 3 -14 2 -11 -3 3 -5 15 -11
26 -14 11 -3 17 -1 14 4 -3 6 -1 16 6 24 6 8 7 16 2 19 -6 3 -12 -4 -15 -15z"/>
<path d="M4735 4101 c-3 -5 -2 -12 3 -15 5 -3 9 1 9 9 0 17 -3 19 -12 6z"/>
<path d="M4486 4045 c4 -8 11 -15 16 -15 6 0 5 6 -2 15 -7 8 -14 15 -16 15 -2
0 -1 -7 2 -15z"/>
<path d="M4880 4044 c0 -5 6 -18 13 -26 11 -16 13 -16 27 0 13 14 12 15 -3 9
-10 -4 -20 0 -26 11 -6 9 -11 12 -11 6z"/>
<path d="M4336 4000 c5 -8 9 -21 10 -28 2 -8 5 -17 8 -20 4 -3 5 4 3 16 -2 12
-9 28 -17 35 -10 10 -11 9 -4 -3z"/>
<path d="M5335 3941 c-3 -5 -2 -12 3 -15 5 -3 9 1 9 9 0 17 -3 19 -12 6z"/>
<path d="M4465 3920 c-10 -11 -15 -20 -12 -20 4 0 2 -11 -3 -25 -5 -13 -6 -26
-2 -29 4 -3 9 3 10 12 4 37 8 51 21 66 19 23 7 20 -14 -4z"/>
<path d="M4750 3926 c0 -2 7 -7 16 -10 8 -3 12 -2 9 4 -6 10 -25 14 -25 6z"/>
<path d="M4325 3883 c1 -10 -2 -23 -7 -30 -5 -7 -5 -14 2 -18 12 -7 11 -8 14
28 2 15 0 30 -5 32 -4 3 -6 -3 -4 -12z"/>
<path d="M5321 3876 c-9 -11 -9 -16 1 -22 7 -4 10 -4 6 1 -4 4 -3 14 3 22 6 7
9 13 6 13 -2 0 -10 -6 -16 -14z"/>
<path d="M4812 3835 c-7 -8 -9 -15 -4 -15 5 0 15 7 22 15 16 19 -1 19 -18 0z"/>
<path d="M5269 3823 c10 -19 9 -22 -4 -17 -26 11 -16 -10 12 -24 17 -7 23 -8
16 -1 -6 6 -9 17 -7 24 3 6 -3 18 -12 26 -16 13 -16 12 -5 -8z"/>
<path d="M4820 3746 c0 -2 7 -6 15 -10 8 -3 15 -1 15 4 0 6 -7 10 -15 10 -8 0
-15 -2 -15 -4z"/>
<path d="M5255 3690 c-4 -6 -10 -8 -15 -5 -4 3 -10 -2 -14 -10 -5 -15 11 -31
21 -21 4 3 1 6 -6 6 -7 0 -3 9 10 20 13 10 21 19 17 20 -4 0 -10 -5 -13 -10z"/>
<path d="M4980 3679 c0 -5 5 -7 10 -4 6 3 10 8 10 11 0 2 -4 4 -10 4 -5 0 -10
-5 -10 -11z"/>
<path d="M1785 3670 c-3 -5 -1 -10 4 -10 6 0 11 5 11 10 0 6 -2 10 -4 10 -3 0
-8 -4 -11 -10z"/>
<path d="M4272 3645 c-1 -14 2 -25 6 -25 5 0 8 9 7 20 -2 29 -10 33 -13 5z"/>
<path d="M5216 3631 c-3 -5 1 -12 10 -15 22 -8 25 -4 9 11 -8 7 -16 9 -19 4z"/>
<path d="M4270 3599 c0 -5 5 -7 10 -4 6 3 10 8 10 11 0 2 -4 4 -10 4 -5 0 -10
-5 -10 -11z"/>
<path d="M5090 3580 c0 -5 5 -10 11 -10 5 0 7 5 4 10 -3 6 -8 10 -11 10 -2 0
-4 -4 -4 -10z"/>
<path d="M5196 3581 c-4 -5 3 -7 14 -4 23 6 26 13 6 13 -8 0 -17 -4 -20 -9z"/>
<path d="M4887 3549 c-4 -16 -3 -18 9 -8 7 6 11 15 8 20 -8 13 -11 11 -17 -12z"/>
<path d="M4894 3518 c-4 -6 -2 -14 5 -16 9 -3 9 -8 -1 -20 -12 -15 -11 -16 5
-3 12 9 14 17 7 26 -5 6 -7 15 -3 18 3 4 4 7 0 7 -3 0 -9 -5 -13 -12z"/>
<path d="M5165 3520 c-3 -5 -1 -10 4 -10 6 0 11 5 11 10 0 6 -2 10 -4 10 -3 0
-8 -4 -11 -10z"/>
<path d="M4365 3410 c-3 -6 1 -7 9 -4 18 7 21 14 7 14 -6 0 -13 -4 -16 -10z"/>
<path d="M4195 3329 c-4 -6 -5 -12 -2 -15 2 -3 7 2 10 11 7 17 1 20 -8 4z"/>
<path d="M4970 3310 c0 -5 5 -10 11 -10 5 0 7 5 4 10 -3 6 -8 10 -11 10 -2 0
-4 -4 -4 -10z"/>
<path d="M4961 3282 c9 -4 15 -15 13 -25 -2 -15 0 -16 12 -6 17 14 1 39 -25
38 -15 0 -15 -1 0 -7z"/>
<path d="M4197 3263 c10 -3 10 -10 2 -24 -5 -11 -15 -16 -21 -13 -6 4 -8 3 -5
-4 13 -19 40 -6 43 21 2 20 -2 27 -14 26 -10 0 -12 -3 -5 -6z"/>
<path d="M5103 3236 c0 -8 5 -12 10 -9 7 4 8 -1 3 -13 -6 -15 -5 -17 5 -6 11
10 10 15 -2 28 -14 13 -16 13 -16 0z"/>
<path d="M4318 3183 c7 -3 16 -2 19 1 4 3 -2 6 -13 5 -11 0 -14 -3 -6 -6z"/>
<path d="M5110 3179 c0 -5 5 -7 10 -4 6 3 10 8 10 11 0 2 -4 4 -10 4 -5 0 -10
-5 -10 -11z"/>
<path d="M5085 3171 c-3 -5 -2 -12 3 -15 5 -3 9 1 9 9 0 17 -3 19 -12 6z"/>
<path d="M4315 3162 c3 -3 0 -11 -6 -18 -7 -8 -7 -14 1 -19 5 -3 11 -4 11 -1
1 3 2 9 3 14 1 4 4 12 8 18 4 6 1 11 -7 11 -8 0 -13 -3 -10 -5z"/>
<path d="M5050 3156 c0 -2 7 -7 16 -10 8 -3 12 -2 9 4 -6 10 -25 14 -25 6z"/>
<path d="M4156 3093 c-6 -14 -5 -15 5 -6 7 7 10 15 7 18 -3 3 -9 -2 -12 -12z"/>
<path d="M4297 3096 c-4 -10 -1 -13 8 -9 8 3 12 9 9 14 -7 12 -11 11 -17 -5z"/>
<path d="M4298 3063 c7 -3 16 -2 19 1 4 3 -2 6 -13 5 -11 0 -14 -3 -6 -6z"/>
<path d="M4136 3003 c-6 -14 -5 -15 5 -6 7 7 10 15 7 18 -3 3 -9 -2 -12 -12z"/>
<path d="M4273 2995 c0 -8 3 -13 5 -10 3 3 12 -1 21 -8 14 -10 14 -10 4 4 -7
9 -10 19 -6 22 3 4 0 7 -9 7 -8 0 -15 -7 -15 -15z"/>
<path d="M4103 2773 c-20 -8 -15 -19 9 -20 16 -2 19 0 9 6 -11 7 -11 9 0 14 8
3 10 5 4 5 -5 0 -16 -2 -22 -5z"/>
<path d="M4240 2760 c-8 -5 -11 -10 -6 -10 5 0 2 -8 -5 -17 -12 -16 -12 -17 2
-6 9 7 19 10 23 6 4 -4 4 1 0 11 -5 14 -4 17 4 12 7 -4 12 -2 12 3 0 13 -10
14 -30 1z"/>
<path d="M1520 2741 c0 -8 -7 -11 -17 -6 -15 5 -16 4 -5 -6 9 -10 15 -10 24
-1 6 6 9 15 5 19 -4 3 -7 1 -7 -6z"/>
<path d="M1295 2709 c-3 -4 2 -6 10 -5 21 3 28 13 10 13 -9 0 -18 -4 -20 -8z"/>
<path d="M4215 2670 c-3 -5 -1 -10 4 -10 6 0 11 5 11 10 0 6 -2 10 -4 10 -3 0
-8 -4 -11 -10z"/>
<path d="M1426 2652 c-2 -4 -1 -14 3 -21 6 -10 10 -9 14 3 6 16 -8 32 -17 18z"/>
<path d="M1385 2639 c3 -4 -2 -10 -11 -13 -9 -3 -14 -12 -11 -20 3 -7 0 -19
-6 -26 -9 -10 -9 -11 3 -4 8 5 24 8 35 6 17 -2 17 -1 -2 8 -31 13 -29 28 3 24
19 -2 23 1 15 10 -6 7 -9 15 -6 18 3 2 -2 5 -10 5 -8 0 -12 -4 -10 -8z"/>
<path d="M1241 2631 c-8 -5 -9 -11 -3 -15 5 -3 12 1 16 9 6 17 6 18 -13 6z"/>
<path d="M4075 2629 c-11 -16 -1 -19 13 -3 7 8 8 14 3 14 -5 0 -13 -5 -16 -11z"/>
<path d="M1450 2620 c0 -5 5 -10 11 -10 5 0 7 5 4 10 -3 6 -8 10 -11 10 -2 0
-4 -4 -4 -10z"/>
<path d="M1570 2606 c0 -8 7 -16 15 -20 8 -3 15 -10 15 -16 0 -6 -5 -8 -12 -4
-7 4 -8 3 -4 -4 10 -17 14 -15 27 11 6 12 8 19 4 15 -10 -10 -37 11 -29 23 3
5 0 9 -5 9 -6 0 -11 -6 -11 -14z"/>
<path d="M1175 2540 c-3 -5 -1 -10 4 -10 6 0 11 5 11 10 0 6 -2 10 -4 10 -3 0
-8 -4 -11 -10z"/>
<path d="M1633 2535 c0 -8 4 -12 9 -9 5 3 6 10 3 15 -9 13 -12 11 -12 -6z"/>
<path d="M1635 2500 c3 -5 8 -10 11 -10 2 0 4 5 4 10 0 6 -5 10 -11 10 -5 0
-7 -4 -4 -10z"/>
<path d="M1516 2487 c3 -10 9 -15 12 -12 3 3 0 11 -7 18 -10 9 -11 8 -5 -6z"/>
<path d="M1286 2451 c-13 -14 -14 -21 -5 -27 7 -4 10 -3 5 4 -3 6 2 15 11 21
10 5 15 12 12 15 -3 4 -14 -2 -23 -13z"/>
<path d="M4043 2435 c0 -8 4 -12 9 -9 5 3 6 10 3 15 -9 13 -12 11 -12 -6z"/>
<path d="M1683 2423 c-9 -3 -7 -11 7 -26 15 -15 23 -18 31 -10 8 8 7 13 -2 18
-8 5 -10 4 -5 -3 4 -7 2 -12 -3 -12 -10 0 -15 14 -12 33 0 4 0 7 -1 6 -2 0 -8
-3 -15 -6z"/>
<path d="M4035 2380 c3 -5 8 -10 11 -10 2 0 4 5 4 10 0 6 -5 10 -11 10 -5 0
-7 -4 -4 -10z"/>
<path d="M1074 2368 c-4 -7 -3 -8 5 -4 6 4 20 2 29 -6 15 -12 16 -11 3 5 -16
20 -27 22 -37 5z"/>
<path d="M1730 2370 c-8 -5 -12 -12 -9 -15 4 -3 12 1 19 10 14 17 11 19 -10 5z"/>
<path d="M3310 2323 c0 -5 10 -18 23 -29 l22 -19 -20 25 c-11 14 -21 27 -22
29 -2 2 -3 0 -3 -6z"/>
<path d="M1760 2290 c0 -13 18 -22 24 -11 3 5 -1 11 -9 15 -8 3 -15 1 -15 -4z"/>
<path d="M1815 2260 c3 -5 8 -10 11 -10 2 0 4 5 4 10 0 6 -5 10 -11 10 -5 0
-7 -4 -4 -10z"/>
<path d="M3186 2246 c3 -7 -5 -18 -18 -24 -13 -6 -17 -11 -10 -11 8 -1 10 -6
6 -13 -4 -7 -4 -10 0 -6 4 3 7 9 6 13 0 3 9 14 21 24 19 15 20 19 6 24 -10 4
-14 2 -11 -7z"/>
<path d="M1630 2241 c0 -6 4 -13 10 -16 6 -3 7 1 4 9 -7 18 -14 21 -14 7z"/>
<path d="M3360 2240 c8 -5 15 -14 15 -20 0 -5 3 -10 8 -10 28 0 30 2 14 11 -9
6 -15 14 -13 18 3 4 -5 8 -17 8 -17 2 -19 0 -7 -7z"/>
<path d="M3990 2240 c0 -5 5 -10 10 -10 6 0 10 5 10 10 0 6 -4 10 -10 10 -5 0
-10 -4 -10 -10z"/>
<path d="M4001 2211 c-7 -5 -11 -13 -7 -19 3 -6 0 -13 -6 -15 -10 -4 -10 -6 0
-6 7 -1 10 -5 7 -11 -3 -5 -1 -10 4 -10 6 0 9 10 7 23 -2 12 1 28 6 35 12 14
9 15 -11 3z"/>
<path d="M1115 2181 c-3 -6 -1 -11 6 -11 7 0 2 -12 -12 -27 -13 -15 -17 -22
-8 -15 9 6 19 8 23 4 4 -4 6 0 4 8 -2 9 3 14 11 12 12 -3 12 -1 1 15 -8 10
-15 19 -16 21 -1 2 -5 -1 -9 -7z"/>
<path d="M1675 2180 c-3 -6 1 -7 9 -4 18 7 21 14 7 14 -6 0 -13 -4 -16 -10z"/>
<path d="M3253 2170 c-1 -11 3 -20 8 -20 6 0 7 5 4 10 -3 6 -1 10 5 10 6 0 8
5 5 10 -10 16 -21 11 -22 -10z"/>
<path d="M1695 2160 c3 -5 14 -10 23 -10 15 0 15 2 2 10 -20 13 -33 13 -25 0z"/>
<path d="M2727 2119 c7 -7 15 -10 18 -7 3 3 -2 9 -12 12 -14 6 -15 5 -6 -5z"/>
<path d="M3203 2111 c-9 -15 -9 -20 0 -24 7 -3 13 5 13 19 2 29 2 29 -13 5z"/>
<path d="M2595 2100 c3 -5 8 -10 11 -10 2 0 4 5 4 10 0 6 -5 10 -11 10 -5 0
-7 -4 -4 -10z"/>
<path d="M3190 2061 c0 -6 4 -12 8 -15 5 -3 9 1 9 9 0 8 -4 15 -9 15 -4 0 -8
-4 -8 -9z"/>
<path d="M881 2043 c-1 -17 16 -25 25 -12 4 7 3 9 -4 5 -5 -3 -13 0 -15 6 -4
9 -6 10 -6 1z"/>
<path d="M3495 2040 c3 -5 8 -10 11 -10 2 0 4 5 4 10 0 6 -5 10 -11 10 -5 0
-7 -4 -4 -10z"/>
<path d="M2477 2023 c-4 -3 -1 -13 6 -21 10 -13 9 -15 -6 -9 -11 4 -16 3 -12
-3 3 -6 1 -10 -4 -10 -6 0 -11 -5 -11 -11 0 -6 15 0 32 13 26 18 29 23 15 26
-9 2 -15 8 -12 13 7 10 1 12 -8 2z"/>
<path d="M3515 2020 c-3 -5 -1 -10 4 -10 6 0 11 5 11 10 0 6 -2 10 -4 10 -3 0
-8 -4 -11 -10z"/>
<path d="M2970 1979 c0 -5 5 -7 10 -4 6 3 10 8 10 11 0 2 -4 4 -10 4 -5 0 -10
-5 -10 -11z"/>
<path d="M2920 1935 c-15 -19 1 -24 28 -10 22 12 22 13 3 18 -11 3 -25 -1 -31
-8z"/>
<path d="M968 1909 c-9 -9 -14 -20 -11 -23 4 -3 13 3 21 15 18 26 12 31 -10 8z"/>
<path d="M1840 1920 c-13 -8 -12 -10 3 -10 9 0 17 5 17 10 0 12 -1 12 -20 0z"/>
<path d="M4075 1920 c-3 -5 -1 -10 4 -10 6 0 11 5 11 10 0 6 -2 10 -4 10 -3 0
-8 -4 -11 -10z"/>
<path d="M3594 1909 c-3 -6 -2 -15 3 -20 5 -5 9 -1 9 11 0 23 -2 24 -12 9z"/>
<path d="M4067 1871 c-17 -29 -17 -29 5 -23 13 3 17 7 10 10 -10 3 -10 7 -1
18 7 8 10 16 7 19 -2 2 -12 -9 -21 -24z"/>
<path d="M2028 1873 c-7 -26 1 -43 20 -43 10 0 13 3 7 8 -5 4 -12 16 -13 27
-5 27 -9 29 -14 8z"/>
<path d="M2333 1863 c0 -9 4 -10 14 -2 7 6 13 12 13 14 0 1 -6 2 -13 2 -8 0
-14 -6 -14 -14z"/>
<path d="M2790 1862 c0 -7 5 -12 10 -12 6 0 10 -5 10 -11 0 -5 -4 -7 -10 -4
-6 4 -7 -1 -3 -11 5 -15 7 -15 16 1 6 12 5 22 -7 33 -10 11 -16 12 -16 4z"/>
<path d="M3070 1859 c0 -5 5 -7 10 -4 6 3 10 8 10 11 0 2 -4 4 -10 4 -5 0 -10
-5 -10 -11z"/>
<path d="M2510 1840 c0 -5 5 -10 11 -10 5 0 7 5 4 10 -3 6 -8 10 -11 10 -2 0
-4 -4 -4 -10z"/>
<path d="M926 1827 c3 -10 9 -15 12 -12 3 3 0 11 -7 18 -10 9 -11 8 -5 -6z"/>
<path d="M2054 1803 c2 -10 6 -17 9 -15 4 1 12 2 18 2 6 0 4 7 -5 15 -19 20
-25 19 -22 -2z"/>
<path d="M913 1795 c0 -8 4 -12 9 -9 5 3 6 10 3 15 -9 13 -12 11 -12 -6z"/>
<path d="M3930 1794 c0 -8 5 -12 10 -9 6 4 8 11 5 16 -9 14 -15 11 -15 -7z"/>
<path d="M2870 1780 c0 -5 5 -10 11 -10 5 0 7 5 4 10 -3 6 -8 10 -11 10 -2 0
-4 -4 -4 -10z"/>
<path d="M3642 1764 c2 -9 13 -23 26 -32 19 -12 23 -13 20 -1 -3 13 -36 49
-45 49 -3 0 -3 -7 -1 -16z"/>
<path d="M4047 1755 c-4 -8 -2 -17 4 -20 5 -4 6 -11 3 -17 -4 -7 -2 -8 5 -4 9
6 9 11 0 22 -8 10 -8 14 0 14 6 0 11 5 11 10 0 15 -17 12 -23 -5z"/>
<path d="M699 1738 c-5 -18 -6 -38 -1 -34 7 8 12 36 6 36 -2 0 -4 -1 -5 -2z"/>
<path d="M2910 1736 c0 -2 8 -10 18 -17 15 -13 16 -12 3 4 -13 16 -21 21 -21
13z"/>
<path d="M2347 1716 c-3 -8 0 -17 8 -20 9 -3 12 0 8 10 -4 10 0 13 13 8 16 -5
16 -4 4 5 -20 14 -27 14 -33 -3z"/>
<path d="M4036 1662 c-2 -4 -1 -14 4 -22 7 -11 9 -9 7 8 -1 24 -3 26 -11 14z"/>
<path d="M3577 1653 c-13 -12 -7 -22 12 -20 15 1 17 4 9 14 -12 15 -13 15 -21
6z"/>
<path d="M3596 1591 c-4 -5 4 -7 16 -4 19 4 20 3 8 -6 -10 -7 -11 -11 -2 -11
6 0 12 -7 12 -15 0 -8 5 -15 10 -15 7 0 7 6 1 18 -5 9 -9 22 -9 27 -1 14 -29
19 -36 6z"/>
<path d="M3766 1571 c-4 -5 -2 -12 3 -15 5 -4 12 -2 15 3 4 5 2 12 -3 15 -5 4
-12 2 -15 -3z"/>
<path d="M3826 1476 c10 -8 21 -12 24 -10 5 6 -21 24 -34 24 -6 0 -1 -6 10
-14z"/>
<path d="M3810 1225 c0 -5 5 -17 10 -25 5 -8 10 -10 10 -5 0 6 -5 17 -10 25
-5 8 -10 11 -10 5z"/>
<path d="M3845 1210 c-3 -5 -5 -10 -3 -11 33 -8 38 -7 27 7 -14 17 -16 17 -24
4z"/>
<path d="M870 800 c0 -5 5 -10 11 -10 5 0 7 5 4 10 -3 6 -8 10 -11 10 -2 0 -4
-4 -4 -10z"/>
<path d="M920 800 c-9 -6 -10 -10 -3 -10 6 0 15 5 18 10 8 12 4 12 -15 0z"/>
<path d="M3750 638 c0 -4 4 -8 9 -8 6 0 12 4 15 8 3 5 -1 9 -9 9 -8 0 -15 -4
-15 -9z"/>
</g>
</svg>
